<?xml version="1.0" encoding="UTF-8"?>
<svg xmlns="http://www.w3.org/2000/svg" xmlns:xlink="http://www.w3.org/1999/xlink" version="1.1" width="101.6mm" height="87.988181mm" viewBox="0 0 101.6 87.988181" style="stroke:black;fill:black" stroke-width="0.5">
<g stroke-width="0.1">
  <path d="M 51.59375 1.374815 L 50.00625 1.374815 50.8 0 z" />
  <path d="M 50.8 2.749631 L 49.2125 2.749631 50.00625 1.374815 z" />
  <path d="M 52.3875 2.749631 L 50.8 2.749631 51.59375 1.374815 z" />
  <path d="M 50.00625 4.124446 L 48.41875 4.124446 49.2125 2.749631 z" />
  <path d="M 49.2125 5.499261 L 47.625 5.499261 48.41875 4.124446 z" />
  <path d="M 50.8 5.499261 L 49.2125 5.499261 50.00625 4.124446 z" />
  <path d="M 53.18125 4.124446 L 51.59375 4.124446 52.3875 2.749631 z" />
  <path d="M 52.3875 5.499261 L 50.8 5.499261 51.59375 4.124446 z" />
  <path d="M 53.975 5.499261 L 52.3875 5.499261 53.18125 4.124446 z" />
  <path d="M 48.41875 6.874077 L 46.83125 6.874077 47.625 5.499261 z" />
  <path d="M 47.625 8.248892 L 46.0375 8.248892 46.83125 6.874077 z" />
  <path d="M 49.2125 8.248892 L 47.625 8.248892 48.41875 6.874077 z" />
  <path d="M 46.83125 9.623707 L 45.24375 9.623707 46.0375 8.248892 z" />
  <path d="M 46.0375 10.998523 L 44.45 10.998523 45.24375 9.623707 z" />
  <path d="M 47.625 10.998523 L 46.0375 10.998523 46.83125 9.623707 z" />
  <path d="M 50.00625 9.623707 L 48.41875 9.623707 49.2125 8.248892 z" />
  <path d="M 49.2125 10.998523 L 47.625 10.998523 48.41875 9.623707 z" />
  <path d="M 50.8 10.998523 L 49.2125 10.998523 50.00625 9.623707 z" />
  <path d="M 54.76875 6.874077 L 53.18125 6.874077 53.975 5.499261 z" />
  <path d="M 53.975 8.248892 L 52.3875 8.248892 53.18125 6.874077 z" />
  <path d="M 55.5625 8.248892 L 53.975 8.248892 54.76875 6.874077 z" />
  <path d="M 53.18125 9.623707 L 51.59375 9.623707 52.3875 8.248892 z" />
  <path d="M 52.3875 10.998523 L 50.8 10.998523 51.59375 9.623707 z" />
  <path d="M 53.975 10.998523 L 52.3875 10.998523 53.18125 9.623707 z" />
  <path d="M 56.35625 9.623707 L 54.76875 9.623707 55.5625 8.248892 z" />
  <path d="M 55.5625 10.998523 L 53.975 10.998523 54.76875 9.623707 z" />
  <path d="M 57.15 10.998523 L 55.5625 10.998523 56.35625 9.623707 z" />
  <path d="M 45.24375 12.373338 L 43.65625 12.373338 44.45 10.998523 z" />
  <path d="M 44.45 13.748153 L 42.8625 13.748153 43.65625 12.373338 z" />
  <path d="M 46.0375 13.748153 L 44.45 13.748153 45.24375 12.373338 z" />
  <path d="M 43.65625 15.122969 L 42.06875 15.122969 42.8625 13.748153 z" />
  <path d="M 42.8625 16.497784 L 41.275 16.497784 42.06875 15.122969 z" />
  <path d="M 44.45 16.497784 L 42.8625 16.497784 43.65625 15.122969 z" />
  <path d="M 46.83125 15.122969 L 45.24375 15.122969 46.0375 13.748153 z" />
  <path d="M 46.0375 16.497784 L 44.45 16.497784 45.24375 15.122969 z" />
  <path d="M 47.625 16.497784 L 46.0375 16.497784 46.83125 15.122969 z" />
  <path d="M 42.06875 17.872599 L 40.48125 17.872599 41.275 16.497784 z" />
  <path d="M 41.275 19.247415 L 39.6875 19.247415 40.48125 17.872599 z" />
  <path d="M 42.8625 19.247415 L 41.275 19.247415 42.06875 17.872599 z" />
  <path d="M 40.48125 20.62223 L 38.89375 20.62223 39.6875 19.247415 z" />
  <path d="M 39.6875 21.997045 L 38.1 21.997045 38.89375 20.62223 z" />
  <path d="M 41.275 21.997045 L 39.6875 21.997045 40.48125 20.62223 z" />
  <path d="M 43.65625 20.62223 L 42.06875 20.62223 42.8625 19.247415 z" />
  <path d="M 42.8625 21.997045 L 41.275 21.997045 42.06875 20.62223 z" />
  <path d="M 44.45 21.997045 L 42.8625 21.997045 43.65625 20.62223 z" />
  <path d="M 48.41875 17.872599 L 46.83125 17.872599 47.625 16.497784 z" />
  <path d="M 47.625 19.247415 L 46.0375 19.247415 46.83125 17.872599 z" />
  <path d="M 49.2125 19.247415 L 47.625 19.247415 48.41875 17.872599 z" />
  <path d="M 46.83125 20.62223 L 45.24375 20.62223 46.0375 19.247415 z" />
  <path d="M 46.0375 21.997045 L 44.45 21.997045 45.24375 20.62223 z" />
  <path d="M 47.625 21.997045 L 46.0375 21.997045 46.83125 20.62223 z" />
  <path d="M 50.00625 20.62223 L 48.41875 20.62223 49.2125 19.247415 z" />
  <path d="M 49.2125 21.997045 L 47.625 21.997045 48.41875 20.62223 z" />
  <path d="M 50.8 21.997045 L 49.2125 21.997045 50.00625 20.62223 z" />
  <path d="M 57.94375 12.373338 L 56.35625 12.373338 57.15 10.998523 z" />
  <path d="M 57.15 13.748153 L 55.5625 13.748153 56.35625 12.373338 z" />
  <path d="M 58.7375 13.748153 L 57.15 13.748153 57.94375 12.373338 z" />
  <path d="M 56.35625 15.122969 L 54.76875 15.122969 55.5625 13.748153 z" />
  <path d="M 55.5625 16.497784 L 53.975 16.497784 54.76875 15.122969 z" />
  <path d="M 57.15 16.497784 L 55.5625 16.497784 56.35625 15.122969 z" />
  <path d="M 59.53125 15.122969 L 57.94375 15.122969 58.7375 13.748153 z" />
  <path d="M 58.7375 16.497784 L 57.15 16.497784 57.94375 15.122969 z" />
  <path d="M 60.325 16.497784 L 58.7375 16.497784 59.53125 15.122969 z" />
  <path d="M 54.76875 17.872599 L 53.18125 17.872599 53.975 16.497784 z" />
  <path d="M 53.975 19.247415 L 52.3875 19.247415 53.18125 17.872599 z" />
  <path d="M 55.5625 19.247415 L 53.975 19.247415 54.76875 17.872599 z" />
  <path d="M 53.18125 20.62223 L 51.59375 20.62223 52.3875 19.247415 z" />
  <path d="M 52.3875 21.997045 L 50.8 21.997045 51.59375 20.62223 z" />
  <path d="M 53.975 21.997045 L 52.3875 21.997045 53.18125 20.62223 z" />
  <path d="M 56.35625 20.62223 L 54.76875 20.62223 55.5625 19.247415 z" />
  <path d="M 55.5625 21.997045 L 53.975 21.997045 54.76875 20.62223 z" />
  <path d="M 57.15 21.997045 L 55.5625 21.997045 56.35625 20.62223 z" />
  <path d="M 61.11875 17.872599 L 59.53125 17.872599 60.325 16.497784 z" />
  <path d="M 60.325 19.247415 L 58.7375 19.247415 59.53125 17.872599 z" />
  <path d="M 61.9125 19.247415 L 60.325 19.247415 61.11875 17.872599 z" />
  <path d="M 59.53125 20.62223 L 57.94375 20.62223 58.7375 19.247415 z" />
  <path d="M 58.7375 21.997045 L 57.15 21.997045 57.94375 20.62223 z" />
  <path d="M 60.325 21.997045 L 58.7375 21.997045 59.53125 20.62223 z" />
  <path d="M 62.70625 20.62223 L 61.11875 20.62223 61.9125 19.247415 z" />
  <path d="M 61.9125 21.997045 L 60.325 21.997045 61.11875 20.62223 z" />
  <path d="M 63.5 21.997045 L 61.9125 21.997045 62.70625 20.62223 z" />
  <path d="M 38.89375 23.371861 L 37.30625 23.371861 38.1 21.997045 z" />
  <path d="M 38.1 24.746676 L 36.5125 24.746676 37.30625 23.371861 z" />
  <path d="M 39.6875 24.746676 L 38.1 24.746676 38.89375 23.371861 z" />
  <path d="M 37.30625 26.121491 L 35.71875 26.121491 36.5125 24.746676 z" />
  <path d="M 36.5125 27.496307 L 34.925 27.496307 35.71875 26.121491 z" />
  <path d="M 38.1 27.496307 L 36.5125 27.496307 37.30625 26.121491 z" />
  <path d="M 40.48125 26.121491 L 38.89375 26.121491 39.6875 24.746676 z" />
  <path d="M 39.6875 27.496307 L 38.1 27.496307 38.89375 26.121491 z" />
  <path d="M 41.275 27.496307 L 39.6875 27.496307 40.48125 26.121491 z" />
  <path d="M 35.71875 28.871122 L 34.13125 28.871122 34.925 27.496307 z" />
  <path d="M 34.925 30.245937 L 33.3375 30.245937 34.13125 28.871122 z" />
  <path d="M 36.5125 30.245937 L 34.925 30.245937 35.71875 28.871122 z" />
  <path d="M 34.13125 31.620753 L 32.54375 31.620753 33.3375 30.245937 z" />
  <path d="M 33.3375 32.995568 L 31.75 32.995568 32.54375 31.620753 z" />
  <path d="M 34.925 32.995568 L 33.3375 32.995568 34.13125 31.620753 z" />
  <path d="M 37.30625 31.620753 L 35.71875 31.620753 36.5125 30.245937 z" />
  <path d="M 36.5125 32.995568 L 34.925 32.995568 35.71875 31.620753 z" />
  <path d="M 38.1 32.995568 L 36.5125 32.995568 37.30625 31.620753 z" />
  <path d="M 42.06875 28.871122 L 40.48125 28.871122 41.275 27.496307 z" />
  <path d="M 41.275 30.245937 L 39.6875 30.245937 40.48125 28.871122 z" />
  <path d="M 42.8625 30.245937 L 41.275 30.245937 42.06875 28.871122 z" />
  <path d="M 40.48125 31.620753 L 38.89375 31.620753 39.6875 30.245937 z" />
  <path d="M 39.6875 32.995568 L 38.1 32.995568 38.89375 31.620753 z" />
  <path d="M 41.275 32.995568 L 39.6875 32.995568 40.48125 31.620753 z" />
  <path d="M 43.65625 31.620753 L 42.06875 31.620753 42.8625 30.245937 z" />
  <path d="M 42.8625 32.995568 L 41.275 32.995568 42.06875 31.620753 z" />
  <path d="M 44.45 32.995568 L 42.8625 32.995568 43.65625 31.620753 z" />
  <path d="M 32.54375 34.370383 L 30.95625 34.370383 31.75 32.995568 z" />
  <path d="M 31.75 35.745199 L 30.1625 35.745199 30.95625 34.370383 z" />
  <path d="M 33.3375 35.745199 L 31.75 35.745199 32.54375 34.370383 z" />
  <path d="M 30.95625 37.120014 L 29.36875 37.120014 30.1625 35.745199 z" />
  <path d="M 30.1625 38.494829 L 28.575 38.494829 29.36875 37.120014 z" />
  <path d="M 31.75 38.494829 L 30.1625 38.494829 30.95625 37.120014 z" />
  <path d="M 34.13125 37.120014 L 32.54375 37.120014 33.3375 35.745199 z" />
  <path d="M 33.3375 38.494829 L 31.75 38.494829 32.54375 37.120014 z" />
  <path d="M 34.925 38.494829 L 33.3375 38.494829 34.13125 37.120014 z" />
  <path d="M 29.36875 39.869645 L 27.78125 39.869645 28.575 38.494829 z" />
  <path d="M 28.575 41.24446 L 26.9875 41.24446 27.78125 39.869645 z" />
  <path d="M 30.1625 41.24446 L 28.575 41.24446 29.36875 39.869645 z" />
  <path d="M 27.78125 42.619275 L 26.19375 42.619275 26.9875 41.24446 z" />
  <path d="M 26.9875 43.994091 L 25.4 43.994091 26.19375 42.619275 z" />
  <path d="M 28.575 43.994091 L 26.9875 43.994091 27.78125 42.619275 z" />
  <path d="M 30.95625 42.619275 L 29.36875 42.619275 30.1625 41.24446 z" />
  <path d="M 30.1625 43.994091 L 28.575 43.994091 29.36875 42.619275 z" />
  <path d="M 31.75 43.994091 L 30.1625 43.994091 30.95625 42.619275 z" />
  <path d="M 35.71875 39.869645 L 34.13125 39.869645 34.925 38.494829 z" />
  <path d="M 34.925 41.24446 L 33.3375 41.24446 34.13125 39.869645 z" />
  <path d="M 36.5125 41.24446 L 34.925 41.24446 35.71875 39.869645 z" />
  <path d="M 34.13125 42.619275 L 32.54375 42.619275 33.3375 41.24446 z" />
  <path d="M 33.3375 43.994091 L 31.75 43.994091 32.54375 42.619275 z" />
  <path d="M 34.925 43.994091 L 33.3375 43.994091 34.13125 42.619275 z" />
  <path d="M 37.30625 42.619275 L 35.71875 42.619275 36.5125 41.24446 z" />
  <path d="M 36.5125 43.994091 L 34.925 43.994091 35.71875 42.619275 z" />
  <path d="M 38.1 43.994091 L 36.5125 43.994091 37.30625 42.619275 z" />
  <path d="M 45.24375 34.370383 L 43.65625 34.370383 44.45 32.995568 z" />
  <path d="M 44.45 35.745199 L 42.8625 35.745199 43.65625 34.370383 z" />
  <path d="M 46.0375 35.745199 L 44.45 35.745199 45.24375 34.370383 z" />
  <path d="M 43.65625 37.120014 L 42.06875 37.120014 42.8625 35.745199 z" />
  <path d="M 42.8625 38.494829 L 41.275 38.494829 42.06875 37.120014 z" />
  <path d="M 44.45 38.494829 L 42.8625 38.494829 43.65625 37.120014 z" />
  <path d="M 46.83125 37.120014 L 45.24375 37.120014 46.0375 35.745199 z" />
  <path d="M 46.0375 38.494829 L 44.45 38.494829 45.24375 37.120014 z" />
  <path d="M 47.625 38.494829 L 46.0375 38.494829 46.83125 37.120014 z" />
  <path d="M 42.06875 39.869645 L 40.48125 39.869645 41.275 38.494829 z" />
  <path d="M 41.275 41.24446 L 39.6875 41.24446 40.48125 39.869645 z" />
  <path d="M 42.8625 41.24446 L 41.275 41.24446 42.06875 39.869645 z" />
  <path d="M 40.48125 42.619275 L 38.89375 42.619275 39.6875 41.24446 z" />
  <path d="M 39.6875 43.994091 L 38.1 43.994091 38.89375 42.619275 z" />
  <path d="M 41.275 43.994091 L 39.6875 43.994091 40.48125 42.619275 z" />
  <path d="M 43.65625 42.619275 L 42.06875 42.619275 42.8625 41.24446 z" />
  <path d="M 42.8625 43.994091 L 41.275 43.994091 42.06875 42.619275 z" />
  <path d="M 44.45 43.994091 L 42.8625 43.994091 43.65625 42.619275 z" />
  <path d="M 48.41875 39.869645 L 46.83125 39.869645 47.625 38.494829 z" />
  <path d="M 47.625 41.24446 L 46.0375 41.24446 46.83125 39.869645 z" />
  <path d="M 49.2125 41.24446 L 47.625 41.24446 48.41875 39.869645 z" />
  <path d="M 46.83125 42.619275 L 45.24375 42.619275 46.0375 41.24446 z" />
  <path d="M 46.0375 43.994091 L 44.45 43.994091 45.24375 42.619275 z" />
  <path d="M 47.625 43.994091 L 46.0375 43.994091 46.83125 42.619275 z" />
  <path d="M 50.00625 42.619275 L 48.41875 42.619275 49.2125 41.24446 z" />
  <path d="M 49.2125 43.994091 L 47.625 43.994091 48.41875 42.619275 z" />
  <path d="M 50.8 43.994091 L 49.2125 43.994091 50.00625 42.619275 z" />
  <path d="M 64.29375 23.371861 L 62.70625 23.371861 63.5 21.997045 z" />
  <path d="M 63.5 24.746676 L 61.9125 24.746676 62.70625 23.371861 z" />
  <path d="M 65.0875 24.746676 L 63.5 24.746676 64.29375 23.371861 z" />
  <path d="M 62.70625 26.121491 L 61.11875 26.121491 61.9125 24.746676 z" />
  <path d="M 61.9125 27.496307 L 60.325 27.496307 61.11875 26.121491 z" />
  <path d="M 63.5 27.496307 L 61.9125 27.496307 62.70625 26.121491 z" />
  <path d="M 65.88125 26.121491 L 64.29375 26.121491 65.0875 24.746676 z" />
  <path d="M 65.0875 27.496307 L 63.5 27.496307 64.29375 26.121491 z" />
  <path d="M 66.675 27.496307 L 65.0875 27.496307 65.88125 26.121491 z" />
  <path d="M 61.11875 28.871122 L 59.53125 28.871122 60.325 27.496307 z" />
  <path d="M 60.325 30.245937 L 58.7375 30.245937 59.53125 28.871122 z" />
  <path d="M 61.9125 30.245937 L 60.325 30.245937 61.11875 28.871122 z" />
  <path d="M 59.53125 31.620753 L 57.94375 31.620753 58.7375 30.245937 z" />
  <path d="M 58.7375 32.995568 L 57.15 32.995568 57.94375 31.620753 z" />
  <path d="M 60.325 32.995568 L 58.7375 32.995568 59.53125 31.620753 z" />
  <path d="M 62.70625 31.620753 L 61.11875 31.620753 61.9125 30.245937 z" />
  <path d="M 61.9125 32.995568 L 60.325 32.995568 61.11875 31.620753 z" />
  <path d="M 63.5 32.995568 L 61.9125 32.995568 62.70625 31.620753 z" />
  <path d="M 67.46875 28.871122 L 65.88125 28.871122 66.675 27.496307 z" />
  <path d="M 66.675 30.245937 L 65.0875 30.245937 65.88125 28.871122 z" />
  <path d="M 68.2625 30.245937 L 66.675 30.245937 67.46875 28.871122 z" />
  <path d="M 65.88125 31.620753 L 64.29375 31.620753 65.0875 30.245937 z" />
  <path d="M 65.0875 32.995568 L 63.5 32.995568 64.29375 31.620753 z" />
  <path d="M 66.675 32.995568 L 65.0875 32.995568 65.88125 31.620753 z" />
  <path d="M 69.05625 31.620753 L 67.46875 31.620753 68.2625 30.245937 z" />
  <path d="M 68.2625 32.995568 L 66.675 32.995568 67.46875 31.620753 z" />
  <path d="M 69.85 32.995568 L 68.2625 32.995568 69.05625 31.620753 z" />
  <path d="M 57.94375 34.370383 L 56.35625 34.370383 57.15 32.995568 z" />
  <path d="M 57.15 35.745199 L 55.5625 35.745199 56.35625 34.370383 z" />
  <path d="M 58.7375 35.745199 L 57.15 35.745199 57.94375 34.370383 z" />
  <path d="M 56.35625 37.120014 L 54.76875 37.120014 55.5625 35.745199 z" />
  <path d="M 55.5625 38.494829 L 53.975 38.494829 54.76875 37.120014 z" />
  <path d="M 57.15 38.494829 L 55.5625 38.494829 56.35625 37.120014 z" />
  <path d="M 59.53125 37.120014 L 57.94375 37.120014 58.7375 35.745199 z" />
  <path d="M 58.7375 38.494829 L 57.15 38.494829 57.94375 37.120014 z" />
  <path d="M 60.325 38.494829 L 58.7375 38.494829 59.53125 37.120014 z" />
  <path d="M 54.76875 39.869645 L 53.18125 39.869645 53.975 38.494829 z" />
  <path d="M 53.975 41.24446 L 52.3875 41.24446 53.18125 39.869645 z" />
  <path d="M 55.5625 41.24446 L 53.975 41.24446 54.76875 39.869645 z" />
  <path d="M 53.18125 42.619275 L 51.59375 42.619275 52.3875 41.24446 z" />
  <path d="M 52.3875 43.994091 L 50.8 43.994091 51.59375 42.619275 z" />
  <path d="M 53.975 43.994091 L 52.3875 43.994091 53.18125 42.619275 z" />
  <path d="M 56.35625 42.619275 L 54.76875 42.619275 55.5625 41.24446 z" />
  <path d="M 55.5625 43.994091 L 53.975 43.994091 54.76875 42.619275 z" />
  <path d="M 57.15 43.994091 L 55.5625 43.994091 56.35625 42.619275 z" />
  <path d="M 61.11875 39.869645 L 59.53125 39.869645 60.325 38.494829 z" />
  <path d="M 60.325 41.24446 L 58.7375 41.24446 59.53125 39.869645 z" />
  <path d="M 61.9125 41.24446 L 60.325 41.24446 61.11875 39.869645 z" />
  <path d="M 59.53125 42.619275 L 57.94375 42.619275 58.7375 41.24446 z" />
  <path d="M 58.7375 43.994091 L 57.15 43.994091 57.94375 42.619275 z" />
  <path d="M 60.325 43.994091 L 58.7375 43.994091 59.53125 42.619275 z" />
  <path d="M 62.70625 42.619275 L 61.11875 42.619275 61.9125 41.24446 z" />
  <path d="M 61.9125 43.994091 L 60.325 43.994091 61.11875 42.619275 z" />
  <path d="M 63.5 43.994091 L 61.9125 43.994091 62.70625 42.619275 z" />
  <path d="M 70.64375 34.370383 L 69.05625 34.370383 69.85 32.995568 z" />
  <path d="M 69.85 35.745199 L 68.2625 35.745199 69.05625 34.370383 z" />
  <path d="M 71.4375 35.745199 L 69.85 35.745199 70.64375 34.370383 z" />
  <path d="M 69.05625 37.120014 L 67.46875 37.120014 68.2625 35.745199 z" />
  <path d="M 68.2625 38.494829 L 66.675 38.494829 67.46875 37.120014 z" />
  <path d="M 69.85 38.494829 L 68.2625 38.494829 69.05625 37.120014 z" />
  <path d="M 72.23125 37.120014 L 70.64375 37.120014 71.4375 35.745199 z" />
  <path d="M 71.4375 38.494829 L 69.85 38.494829 70.64375 37.120014 z" />
  <path d="M 73.025 38.494829 L 71.4375 38.494829 72.23125 37.120014 z" />
  <path d="M 67.46875 39.869645 L 65.88125 39.869645 66.675 38.494829 z" />
  <path d="M 66.675 41.24446 L 65.0875 41.24446 65.88125 39.869645 z" />
  <path d="M 68.2625 41.24446 L 66.675 41.24446 67.46875 39.869645 z" />
  <path d="M 65.88125 42.619275 L 64.29375 42.619275 65.0875 41.24446 z" />
  <path d="M 65.0875 43.994091 L 63.5 43.994091 64.29375 42.619275 z" />
  <path d="M 66.675 43.994091 L 65.0875 43.994091 65.88125 42.619275 z" />
  <path d="M 69.05625 42.619275 L 67.46875 42.619275 68.2625 41.24446 z" />
  <path d="M 68.2625 43.994091 L 66.675 43.994091 67.46875 42.619275 z" />
  <path d="M 69.85 43.994091 L 68.2625 43.994091 69.05625 42.619275 z" />
  <path d="M 73.81875 39.869645 L 72.23125 39.869645 73.025 38.494829 z" />
  <path d="M 73.025 41.24446 L 71.4375 41.24446 72.23125 39.869645 z" />
  <path d="M 74.6125 41.24446 L 73.025 41.24446 73.81875 39.869645 z" />
  <path d="M 72.23125 42.619275 L 70.64375 42.619275 71.4375 41.24446 z" />
  <path d="M 71.4375 43.994091 L 69.85 43.994091 70.64375 42.619275 z" />
  <path d="M 73.025 43.994091 L 71.4375 43.994091 72.23125 42.619275 z" />
  <path d="M 75.40625 42.619275 L 73.81875 42.619275 74.6125 41.24446 z" />
  <path d="M 74.6125 43.994091 L 73.025 43.994091 73.81875 42.619275 z" />
  <path d="M 76.2 43.994091 L 74.6125 43.994091 75.40625 42.619275 z" />
  <path d="M 26.19375 45.368906 L 24.60625 45.368906 25.4 43.994091 z" />
  <path d="M 25.4 46.743721 L 23.8125 46.743721 24.60625 45.368906 z" />
  <path d="M 26.9875 46.743721 L 25.4 46.743721 26.19375 45.368906 z" />
  <path d="M 24.60625 48.118536 L 23.01875 48.118536 23.8125 46.743721 z" />
  <path d="M 23.8125 49.493352 L 22.225 49.493352 23.01875 48.118536 z" />
  <path d="M 25.4 49.493352 L 23.8125 49.493352 24.60625 48.118536 z" />
  <path d="M 27.78125 48.118536 L 26.19375 48.118536 26.9875 46.743721 z" />
  <path d="M 26.9875 49.493352 L 25.4 49.493352 26.19375 48.118536 z" />
  <path d="M 28.575 49.493352 L 26.9875 49.493352 27.78125 48.118536 z" />
  <path d="M 23.01875 50.868167 L 21.43125 50.868167 22.225 49.493352 z" />
  <path d="M 22.225 52.242982 L 20.6375 52.242982 21.43125 50.868167 z" />
  <path d="M 23.8125 52.242982 L 22.225 52.242982 23.01875 50.868167 z" />
  <path d="M 21.43125 53.617798 L 19.84375 53.617798 20.6375 52.242982 z" />
  <path d="M 20.6375 54.992613 L 19.05 54.992613 19.84375 53.617798 z" />
  <path d="M 22.225 54.992613 L 20.6375 54.992613 21.43125 53.617798 z" />
  <path d="M 24.60625 53.617798 L 23.01875 53.617798 23.8125 52.242982 z" />
  <path d="M 23.8125 54.992613 L 22.225 54.992613 23.01875 53.617798 z" />
  <path d="M 25.4 54.992613 L 23.8125 54.992613 24.60625 53.617798 z" />
  <path d="M 29.36875 50.868167 L 27.78125 50.868167 28.575 49.493352 z" />
  <path d="M 28.575 52.242982 L 26.9875 52.242982 27.78125 50.868167 z" />
  <path d="M 30.1625 52.242982 L 28.575 52.242982 29.36875 50.868167 z" />
  <path d="M 27.78125 53.617798 L 26.19375 53.617798 26.9875 52.242982 z" />
  <path d="M 26.9875 54.992613 L 25.4 54.992613 26.19375 53.617798 z" />
  <path d="M 28.575 54.992613 L 26.9875 54.992613 27.78125 53.617798 z" />
  <path d="M 30.95625 53.617798 L 29.36875 53.617798 30.1625 52.242982 z" />
  <path d="M 30.1625 54.992613 L 28.575 54.992613 29.36875 53.617798 z" />
  <path d="M 31.75 54.992613 L 30.1625 54.992613 30.95625 53.617798 z" />
  <path d="M 19.84375 56.367428 L 18.25625 56.367428 19.05 54.992613 z" />
  <path d="M 19.05 57.742244 L 17.4625 57.742244 18.25625 56.367428 z" />
  <path d="M 20.6375 57.742244 L 19.05 57.742244 19.84375 56.367428 z" />
  <path d="M 18.25625 59.117059 L 16.66875 59.117059 17.4625 57.742244 z" />
  <path d="M 17.4625 60.491874 L 15.875 60.491874 16.66875 59.117059 z" />
  <path d="M 19.05 60.491874 L 17.4625 60.491874 18.25625 59.117059 z" />
  <path d="M 21.43125 59.117059 L 19.84375 59.117059 20.6375 57.742244 z" />
  <path d="M 20.6375 60.491874 L 19.05 60.491874 19.84375 59.117059 z" />
  <path d="M 22.225 60.491874 L 20.6375 60.491874 21.43125 59.117059 z" />
  <path d="M 16.66875 61.86669 L 15.08125 61.86669 15.875 60.491874 z" />
  <path d="M 15.875 63.241505 L 14.2875 63.241505 15.08125 61.86669 z" />
  <path d="M 17.4625 63.241505 L 15.875 63.241505 16.66875 61.86669 z" />
  <path d="M 15.08125 64.61632 L 13.49375 64.61632 14.2875 63.241505 z" />
  <path d="M 14.2875 65.991136 L 12.7 65.991136 13.49375 64.61632 z" />
  <path d="M 15.875 65.991136 L 14.2875 65.991136 15.08125 64.61632 z" />
  <path d="M 18.25625 64.61632 L 16.66875 64.61632 17.4625 63.241505 z" />
  <path d="M 17.4625 65.991136 L 15.875 65.991136 16.66875 64.61632 z" />
  <path d="M 19.05 65.991136 L 17.4625 65.991136 18.25625 64.61632 z" />
  <path d="M 23.01875 61.86669 L 21.43125 61.86669 22.225 60.491874 z" />
  <path d="M 22.225 63.241505 L 20.6375 63.241505 21.43125 61.86669 z" />
  <path d="M 23.8125 63.241505 L 22.225 63.241505 23.01875 61.86669 z" />
  <path d="M 21.43125 64.61632 L 19.84375 64.61632 20.6375 63.241505 z" />
  <path d="M 20.6375 65.991136 L 19.05 65.991136 19.84375 64.61632 z" />
  <path d="M 22.225 65.991136 L 20.6375 65.991136 21.43125 64.61632 z" />
  <path d="M 24.60625 64.61632 L 23.01875 64.61632 23.8125 63.241505 z" />
  <path d="M 23.8125 65.991136 L 22.225 65.991136 23.01875 64.61632 z" />
  <path d="M 25.4 65.991136 L 23.8125 65.991136 24.60625 64.61632 z" />
  <path d="M 32.54375 56.367428 L 30.95625 56.367428 31.75 54.992613 z" />
  <path d="M 31.75 57.742244 L 30.1625 57.742244 30.95625 56.367428 z" />
  <path d="M 33.3375 57.742244 L 31.75 57.742244 32.54375 56.367428 z" />
  <path d="M 30.95625 59.117059 L 29.36875 59.117059 30.1625 57.742244 z" />
  <path d="M 30.1625 60.491874 L 28.575 60.491874 29.36875 59.117059 z" />
  <path d="M 31.75 60.491874 L 30.1625 60.491874 30.95625 59.117059 z" />
  <path d="M 34.13125 59.117059 L 32.54375 59.117059 33.3375 57.742244 z" />
  <path d="M 33.3375 60.491874 L 31.75 60.491874 32.54375 59.117059 z" />
  <path d="M 34.925 60.491874 L 33.3375 60.491874 34.13125 59.117059 z" />
  <path d="M 29.36875 61.86669 L 27.78125 61.86669 28.575 60.491874 z" />
  <path d="M 28.575 63.241505 L 26.9875 63.241505 27.78125 61.86669 z" />
  <path d="M 30.1625 63.241505 L 28.575 63.241505 29.36875 61.86669 z" />
  <path d="M 27.78125 64.61632 L 26.19375 64.61632 26.9875 63.241505 z" />
  <path d="M 26.9875 65.991136 L 25.4 65.991136 26.19375 64.61632 z" />
  <path d="M 28.575 65.991136 L 26.9875 65.991136 27.78125 64.61632 z" />
  <path d="M 30.95625 64.61632 L 29.36875 64.61632 30.1625 63.241505 z" />
  <path d="M 30.1625 65.991136 L 28.575 65.991136 29.36875 64.61632 z" />
  <path d="M 31.75 65.991136 L 30.1625 65.991136 30.95625 64.61632 z" />
  <path d="M 35.71875 61.86669 L 34.13125 61.86669 34.925 60.491874 z" />
  <path d="M 34.925 63.241505 L 33.3375 63.241505 34.13125 61.86669 z" />
  <path d="M 36.5125 63.241505 L 34.925 63.241505 35.71875 61.86669 z" />
  <path d="M 34.13125 64.61632 L 32.54375 64.61632 33.3375 63.241505 z" />
  <path d="M 33.3375 65.991136 L 31.75 65.991136 32.54375 64.61632 z" />
  <path d="M 34.925 65.991136 L 33.3375 65.991136 34.13125 64.61632 z" />
  <path d="M 37.30625 64.61632 L 35.71875 64.61632 36.5125 63.241505 z" />
  <path d="M 36.5125 65.991136 L 34.925 65.991136 35.71875 64.61632 z" />
  <path d="M 38.1 65.991136 L 36.5125 65.991136 37.30625 64.61632 z" />
  <path d="M 13.49375 67.365951 L 11.90625 67.365951 12.7 65.991136 z" />
  <path d="M 12.7 68.740766 L 11.1125 68.740766 11.90625 67.365951 z" />
  <path d="M 14.2875 68.740766 L 12.7 68.740766 13.49375 67.365951 z" />
  <path d="M 11.90625 70.115582 L 10.31875 70.115582 11.1125 68.740766 z" />
  <path d="M 11.1125 71.490397 L 9.525 71.490397 10.31875 70.115582 z" />
  <path d="M 12.7 71.490397 L 11.1125 71.490397 11.90625 70.115582 z" />
  <path d="M 15.08125 70.115582 L 13.49375 70.115582 14.2875 68.740766 z" />
  <path d="M 14.2875 71.490397 L 12.7 71.490397 13.49375 70.115582 z" />
  <path d="M 15.875 71.490397 L 14.2875 71.490397 15.08125 70.115582 z" />
  <path d="M 10.31875 72.865212 L 8.73125 72.865212 9.525 71.490397 z" />
  <path d="M 9.525 74.240028 L 7.9375 74.240028 8.73125 72.865212 z" />
  <path d="M 11.1125 74.240028 L 9.525 74.240028 10.31875 72.865212 z" />
  <path d="M 8.73125 75.614843 L 7.14375 75.614843 7.9375 74.240028 z" />
  <path d="M 7.9375 76.989658 L 6.35 76.989658 7.14375 75.614843 z" />
  <path d="M 9.525 76.989658 L 7.9375 76.989658 8.73125 75.614843 z" />
  <path d="M 11.90625 75.614843 L 10.31875 75.614843 11.1125 74.240028 z" />
  <path d="M 11.1125 76.989658 L 9.525 76.989658 10.31875 75.614843 z" />
  <path d="M 12.7 76.989658 L 11.1125 76.989658 11.90625 75.614843 z" />
  <path d="M 16.66875 72.865212 L 15.08125 72.865212 15.875 71.490397 z" />
  <path d="M 15.875 74.240028 L 14.2875 74.240028 15.08125 72.865212 z" />
  <path d="M 17.4625 74.240028 L 15.875 74.240028 16.66875 72.865212 z" />
  <path d="M 15.08125 75.614843 L 13.49375 75.614843 14.2875 74.240028 z" />
  <path d="M 14.2875 76.989658 L 12.7 76.989658 13.49375 75.614843 z" />
  <path d="M 15.875 76.989658 L 14.2875 76.989658 15.08125 75.614843 z" />
  <path d="M 18.25625 75.614843 L 16.66875 75.614843 17.4625 74.240028 z" />
  <path d="M 17.4625 76.989658 L 15.875 76.989658 16.66875 75.614843 z" />
  <path d="M 19.05 76.989658 L 17.4625 76.989658 18.25625 75.614843 z" />
  <path d="M 7.14375 78.364474 L 5.55625 78.364474 6.35 76.989658 z" />
  <path d="M 6.35 79.739289 L 4.7625 79.739289 5.55625 78.364474 z" />
  <path d="M 7.9375 79.739289 L 6.35 79.739289 7.14375 78.364474 z" />
  <path d="M 5.55625 81.114104 L 3.96875 81.114104 4.7625 79.739289 z" />
  <path d="M 4.7625 82.48892 L 3.175 82.48892 3.96875 81.114104 z" />
  <path d="M 6.35 82.48892 L 4.7625 82.48892 5.55625 81.114104 z" />
  <path d="M 8.73125 81.114104 L 7.14375 81.114104 7.9375 79.739289 z" />
  <path d="M 7.9375 82.48892 L 6.35 82.48892 7.14375 81.114104 z" />
  <path d="M 9.525 82.48892 L 7.9375 82.48892 8.73125 81.114104 z" />
  <path d="M 3.96875 83.863735 L 2.38125 83.863735 3.175 82.48892 z" />
  <path d="M 3.175 85.23855 L 1.5875 85.23855 2.38125 83.863735 z" />
  <path d="M 4.7625 85.23855 L 3.175 85.23855 3.96875 83.863735 z" />
  <path d="M 2.38125 86.613366 L 0.79375 86.613366 1.5875 85.23855 z" />
  <path d="M 1.5875 87.988181 L 0 87.988181 0.79375 86.613366 z" />
  <path d="M 3.175 87.988181 L 1.5875 87.988181 2.38125 86.613366 z" />
  <path d="M 5.55625 86.613366 L 3.96875 86.613366 4.7625 85.23855 z" />
  <path d="M 4.7625 87.988181 L 3.175 87.988181 3.96875 86.613366 z" />
  <path d="M 6.35 87.988181 L 4.7625 87.988181 5.55625 86.613366 z" />
  <path d="M 10.31875 83.863735 L 8.73125 83.863735 9.525 82.48892 z" />
  <path d="M 9.525 85.23855 L 7.9375 85.23855 8.73125 83.863735 z" />
  <path d="M 11.1125 85.23855 L 9.525 85.23855 10.31875 83.863735 z" />
  <path d="M 8.73125 86.613366 L 7.14375 86.613366 7.9375 85.23855 z" />
  <path d="M 7.9375 87.988181 L 6.35 87.988181 7.14375 86.613366 z" />
  <path d="M 9.525 87.988181 L 7.9375 87.988181 8.73125 86.613366 z" />
  <path d="M 11.90625 86.613366 L 10.31875 86.613366 11.1125 85.23855 z" />
  <path d="M 11.1125 87.988181 L 9.525 87.988181 10.31875 86.613366 z" />
  <path d="M 12.7 87.988181 L 11.1125 87.988181 11.90625 86.613366 z" />
  <path d="M 19.84375 78.364474 L 18.25625 78.364474 19.05 76.989658 z" />
  <path d="M 19.05 79.739289 L 17.4625 79.739289 18.25625 78.364474 z" />
  <path d="M 20.6375 79.739289 L 19.05 79.739289 19.84375 78.364474 z" />
  <path d="M 18.25625 81.114104 L 16.66875 81.114104 17.4625 79.739289 z" />
  <path d="M 17.4625 82.48892 L 15.875 82.48892 16.66875 81.114104 z" />
  <path d="M 19.05 82.48892 L 17.4625 82.48892 18.25625 81.114104 z" />
  <path d="M 21.43125 81.114104 L 19.84375 81.114104 20.6375 79.739289 z" />
  <path d="M 20.6375 82.48892 L 19.05 82.48892 19.84375 81.114104 z" />
  <path d="M 22.225 82.48892 L 20.6375 82.48892 21.43125 81.114104 z" />
  <path d="M 16.66875 83.863735 L 15.08125 83.863735 15.875 82.48892 z" />
  <path d="M 15.875 85.23855 L 14.2875 85.23855 15.08125 83.863735 z" />
  <path d="M 17.4625 85.23855 L 15.875 85.23855 16.66875 83.863735 z" />
  <path d="M 15.08125 86.613366 L 13.49375 86.613366 14.2875 85.23855 z" />
  <path d="M 14.2875 87.988181 L 12.7 87.988181 13.49375 86.613366 z" />
  <path d="M 15.875 87.988181 L 14.2875 87.988181 15.08125 86.613366 z" />
  <path d="M 18.25625 86.613366 L 16.66875 86.613366 17.4625 85.23855 z" />
  <path d="M 17.4625 87.988181 L 15.875 87.988181 16.66875 86.613366 z" />
  <path d="M 19.05 87.988181 L 17.4625 87.988181 18.25625 86.613366 z" />
  <path d="M 23.01875 83.863735 L 21.43125 83.863735 22.225 82.48892 z" />
  <path d="M 22.225 85.23855 L 20.6375 85.23855 21.43125 83.863735 z" />
  <path d="M 23.8125 85.23855 L 22.225 85.23855 23.01875 83.863735 z" />
  <path d="M 21.43125 86.613366 L 19.84375 86.613366 20.6375 85.23855 z" />
  <path d="M 20.6375 87.988181 L 19.05 87.988181 19.84375 86.613366 z" />
  <path d="M 22.225 87.988181 L 20.6375 87.988181 21.43125 86.613366 z" />
  <path d="M 24.60625 86.613366 L 23.01875 86.613366 23.8125 85.23855 z" />
  <path d="M 23.8125 87.988181 L 22.225 87.988181 23.01875 86.613366 z" />
  <path d="M 25.4 87.988181 L 23.8125 87.988181 24.60625 86.613366 z" />
  <path d="M 38.89375 67.365951 L 37.30625 67.365951 38.1 65.991136 z" />
  <path d="M 38.1 68.740766 L 36.5125 68.740766 37.30625 67.365951 z" />
  <path d="M 39.6875 68.740766 L 38.1 68.740766 38.89375 67.365951 z" />
  <path d="M 37.30625 70.115582 L 35.71875 70.115582 36.5125 68.740766 z" />
  <path d="M 36.5125 71.490397 L 34.925 71.490397 35.71875 70.115582 z" />
  <path d="M 38.1 71.490397 L 36.5125 71.490397 37.30625 70.115582 z" />
  <path d="M 40.48125 70.115582 L 38.89375 70.115582 39.6875 68.740766 z" />
  <path d="M 39.6875 71.490397 L 38.1 71.490397 38.89375 70.115582 z" />
  <path d="M 41.275 71.490397 L 39.6875 71.490397 40.48125 70.115582 z" />
  <path d="M 35.71875 72.865212 L 34.13125 72.865212 34.925 71.490397 z" />
  <path d="M 34.925 74.240028 L 33.3375 74.240028 34.13125 72.865212 z" />
  <path d="M 36.5125 74.240028 L 34.925 74.240028 35.71875 72.865212 z" />
  <path d="M 34.13125 75.614843 L 32.54375 75.614843 33.3375 74.240028 z" />
  <path d="M 33.3375 76.989658 L 31.75 76.989658 32.54375 75.614843 z" />
  <path d="M 34.925 76.989658 L 33.3375 76.989658 34.13125 75.614843 z" />
  <path d="M 37.30625 75.614843 L 35.71875 75.614843 36.5125 74.240028 z" />
  <path d="M 36.5125 76.989658 L 34.925 76.989658 35.71875 75.614843 z" />
  <path d="M 38.1 76.989658 L 36.5125 76.989658 37.30625 75.614843 z" />
  <path d="M 42.06875 72.865212 L 40.48125 72.865212 41.275 71.490397 z" />
  <path d="M 41.275 74.240028 L 39.6875 74.240028 40.48125 72.865212 z" />
  <path d="M 42.8625 74.240028 L 41.275 74.240028 42.06875 72.865212 z" />
  <path d="M 40.48125 75.614843 L 38.89375 75.614843 39.6875 74.240028 z" />
  <path d="M 39.6875 76.989658 L 38.1 76.989658 38.89375 75.614843 z" />
  <path d="M 41.275 76.989658 L 39.6875 76.989658 40.48125 75.614843 z" />
  <path d="M 43.65625 75.614843 L 42.06875 75.614843 42.8625 74.240028 z" />
  <path d="M 42.8625 76.989658 L 41.275 76.989658 42.06875 75.614843 z" />
  <path d="M 44.45 76.989658 L 42.8625 76.989658 43.65625 75.614843 z" />
  <path d="M 32.54375 78.364474 L 30.95625 78.364474 31.75 76.989658 z" />
  <path d="M 31.75 79.739289 L 30.1625 79.739289 30.95625 78.364474 z" />
  <path d="M 33.3375 79.739289 L 31.75 79.739289 32.54375 78.364474 z" />
  <path d="M 30.95625 81.114104 L 29.36875 81.114104 30.1625 79.739289 z" />
  <path d="M 30.1625 82.48892 L 28.575 82.48892 29.36875 81.114104 z" />
  <path d="M 31.75 82.48892 L 30.1625 82.48892 30.95625 81.114104 z" />
  <path d="M 34.13125 81.114104 L 32.54375 81.114104 33.3375 79.739289 z" />
  <path d="M 33.3375 82.48892 L 31.75 82.48892 32.54375 81.114104 z" />
  <path d="M 34.925 82.48892 L 33.3375 82.48892 34.13125 81.114104 z" />
  <path d="M 29.36875 83.863735 L 27.78125 83.863735 28.575 82.48892 z" />
  <path d="M 28.575 85.23855 L 26.9875 85.23855 27.78125 83.863735 z" />
  <path d="M 30.1625 85.23855 L 28.575 85.23855 29.36875 83.863735 z" />
  <path d="M 27.78125 86.613366 L 26.19375 86.613366 26.9875 85.23855 z" />
  <path d="M 26.9875 87.988181 L 25.4 87.988181 26.19375 86.613366 z" />
  <path d="M 28.575 87.988181 L 26.9875 87.988181 27.78125 86.613366 z" />
  <path d="M 30.95625 86.613366 L 29.36875 86.613366 30.1625 85.23855 z" />
  <path d="M 30.1625 87.988181 L 28.575 87.988181 29.36875 86.613366 z" />
  <path d="M 31.75 87.988181 L 30.1625 87.988181 30.95625 86.613366 z" />
  <path d="M 35.71875 83.863735 L 34.13125 83.863735 34.925 82.48892 z" />
  <path d="M 34.925 85.23855 L 33.3375 85.23855 34.13125 83.863735 z" />
  <path d="M 36.5125 85.23855 L 34.925 85.23855 35.71875 83.863735 z" />
  <path d="M 34.13125 86.613366 L 32.54375 86.613366 33.3375 85.23855 z" />
  <path d="M 33.3375 87.988181 L 31.75 87.988181 32.54375 86.613366 z" />
  <path d="M 34.925 87.988181 L 33.3375 87.988181 34.13125 86.613366 z" />
  <path d="M 37.30625 86.613366 L 35.71875 86.613366 36.5125 85.23855 z" />
  <path d="M 36.5125 87.988181 L 34.925 87.988181 35.71875 86.613366 z" />
  <path d="M 38.1 87.988181 L 36.5125 87.988181 37.30625 86.613366 z" />
  <path d="M 45.24375 78.364474 L 43.65625 78.364474 44.45 76.989658 z" />
  <path d="M 44.45 79.739289 L 42.8625 79.739289 43.65625 78.364474 z" />
  <path d="M 46.0375 79.739289 L 44.45 79.739289 45.24375 78.364474 z" />
  <path d="M 43.65625 81.114104 L 42.06875 81.114104 42.8625 79.739289 z" />
  <path d="M 42.8625 82.48892 L 41.275 82.48892 42.06875 81.114104 z" />
  <path d="M 44.45 82.48892 L 42.8625 82.48892 43.65625 81.114104 z" />
  <path d="M 46.83125 81.114104 L 45.24375 81.114104 46.0375 79.739289 z" />
  <path d="M 46.0375 82.48892 L 44.45 82.48892 45.24375 81.114104 z" />
  <path d="M 47.625 82.48892 L 46.0375 82.48892 46.83125 81.114104 z" />
  <path d="M 42.06875 83.863735 L 40.48125 83.863735 41.275 82.48892 z" />
  <path d="M 41.275 85.23855 L 39.6875 85.23855 40.48125 83.863735 z" />
  <path d="M 42.8625 85.23855 L 41.275 85.23855 42.06875 83.863735 z" />
  <path d="M 40.48125 86.613366 L 38.89375 86.613366 39.6875 85.23855 z" />
  <path d="M 39.6875 87.988181 L 38.1 87.988181 38.89375 86.613366 z" />
  <path d="M 41.275 87.988181 L 39.6875 87.988181 40.48125 86.613366 z" />
  <path d="M 43.65625 86.613366 L 42.06875 86.613366 42.8625 85.23855 z" />
  <path d="M 42.8625 87.988181 L 41.275 87.988181 42.06875 86.613366 z" />
  <path d="M 44.45 87.988181 L 42.8625 87.988181 43.65625 86.613366 z" />
  <path d="M 48.41875 83.863735 L 46.83125 83.863735 47.625 82.48892 z" />
  <path d="M 47.625 85.23855 L 46.0375 85.23855 46.83125 83.863735 z" />
  <path d="M 49.2125 85.23855 L 47.625 85.23855 48.41875 83.863735 z" />
  <path d="M 46.83125 86.613366 L 45.24375 86.613366 46.0375 85.23855 z" />
  <path d="M 46.0375 87.988181 L 44.45 87.988181 45.24375 86.613366 z" />
  <path d="M 47.625 87.988181 L 46.0375 87.988181 46.83125 86.613366 z" />
  <path d="M 50.00625 86.613366 L 48.41875 86.613366 49.2125 85.23855 z" />
  <path d="M 49.2125 87.988181 L 47.625 87.988181 48.41875 86.613366 z" />
  <path d="M 50.8 87.988181 L 49.2125 87.988181 50.00625 86.613366 z" />
  <path d="M 76.99375 45.368906 L 75.40625 45.368906 76.2 43.994091 z" />
  <path d="M 76.2 46.743721 L 74.6125 46.743721 75.40625 45.368906 z" />
  <path d="M 77.7875 46.743721 L 76.2 46.743721 76.99375 45.368906 z" />
  <path d="M 75.40625 48.118536 L 73.81875 48.118536 74.6125 46.743721 z" />
  <path d="M 74.6125 49.493352 L 73.025 49.493352 73.81875 48.118536 z" />
  <path d="M 76.2 49.493352 L 74.6125 49.493352 75.40625 48.118536 z" />
  <path d="M 78.58125 48.118536 L 76.99375 48.118536 77.7875 46.743721 z" />
  <path d="M 77.7875 49.493352 L 76.2 49.493352 76.99375 48.118536 z" />
  <path d="M 79.375 49.493352 L 77.7875 49.493352 78.58125 48.118536 z" />
  <path d="M 73.81875 50.868167 L 72.23125 50.868167 73.025 49.493352 z" />
  <path d="M 73.025 52.242982 L 71.4375 52.242982 72.23125 50.868167 z" />
  <path d="M 74.6125 52.242982 L 73.025 52.242982 73.81875 50.868167 z" />
  <path d="M 72.23125 53.617798 L 70.64375 53.617798 71.4375 52.242982 z" />
  <path d="M 71.4375 54.992613 L 69.85 54.992613 70.64375 53.617798 z" />
  <path d="M 73.025 54.992613 L 71.4375 54.992613 72.23125 53.617798 z" />
  <path d="M 75.40625 53.617798 L 73.81875 53.617798 74.6125 52.242982 z" />
  <path d="M 74.6125 54.992613 L 73.025 54.992613 73.81875 53.617798 z" />
  <path d="M 76.2 54.992613 L 74.6125 54.992613 75.40625 53.617798 z" />
  <path d="M 80.16875 50.868167 L 78.58125 50.868167 79.375 49.493352 z" />
  <path d="M 79.375 52.242982 L 77.7875 52.242982 78.58125 50.868167 z" />
  <path d="M 80.9625 52.242982 L 79.375 52.242982 80.16875 50.868167 z" />
  <path d="M 78.58125 53.617798 L 76.99375 53.617798 77.7875 52.242982 z" />
  <path d="M 77.7875 54.992613 L 76.2 54.992613 76.99375 53.617798 z" />
  <path d="M 79.375 54.992613 L 77.7875 54.992613 78.58125 53.617798 z" />
  <path d="M 81.75625 53.617798 L 80.16875 53.617798 80.9625 52.242982 z" />
  <path d="M 80.9625 54.992613 L 79.375 54.992613 80.16875 53.617798 z" />
  <path d="M 82.55 54.992613 L 80.9625 54.992613 81.75625 53.617798 z" />
  <path d="M 70.64375 56.367428 L 69.05625 56.367428 69.85 54.992613 z" />
  <path d="M 69.85 57.742244 L 68.2625 57.742244 69.05625 56.367428 z" />
  <path d="M 71.4375 57.742244 L 69.85 57.742244 70.64375 56.367428 z" />
  <path d="M 69.05625 59.117059 L 67.46875 59.117059 68.2625 57.742244 z" />
  <path d="M 68.2625 60.491874 L 66.675 60.491874 67.46875 59.117059 z" />
  <path d="M 69.85 60.491874 L 68.2625 60.491874 69.05625 59.117059 z" />
  <path d="M 72.23125 59.117059 L 70.64375 59.117059 71.4375 57.742244 z" />
  <path d="M 71.4375 60.491874 L 69.85 60.491874 70.64375 59.117059 z" />
  <path d="M 73.025 60.491874 L 71.4375 60.491874 72.23125 59.117059 z" />
  <path d="M 67.46875 61.86669 L 65.88125 61.86669 66.675 60.491874 z" />
  <path d="M 66.675 63.241505 L 65.0875 63.241505 65.88125 61.86669 z" />
  <path d="M 68.2625 63.241505 L 66.675 63.241505 67.46875 61.86669 z" />
  <path d="M 65.88125 64.61632 L 64.29375 64.61632 65.0875 63.241505 z" />
  <path d="M 65.0875 65.991136 L 63.5 65.991136 64.29375 64.61632 z" />
  <path d="M 66.675 65.991136 L 65.0875 65.991136 65.88125 64.61632 z" />
  <path d="M 69.05625 64.61632 L 67.46875 64.61632 68.2625 63.241505 z" />
  <path d="M 68.2625 65.991136 L 66.675 65.991136 67.46875 64.61632 z" />
  <path d="M 69.85 65.991136 L 68.2625 65.991136 69.05625 64.61632 z" />
  <path d="M 73.81875 61.86669 L 72.23125 61.86669 73.025 60.491874 z" />
  <path d="M 73.025 63.241505 L 71.4375 63.241505 72.23125 61.86669 z" />
  <path d="M 74.6125 63.241505 L 73.025 63.241505 73.81875 61.86669 z" />
  <path d="M 72.23125 64.61632 L 70.64375 64.61632 71.4375 63.241505 z" />
  <path d="M 71.4375 65.991136 L 69.85 65.991136 70.64375 64.61632 z" />
  <path d="M 73.025 65.991136 L 71.4375 65.991136 72.23125 64.61632 z" />
  <path d="M 75.40625 64.61632 L 73.81875 64.61632 74.6125 63.241505 z" />
  <path d="M 74.6125 65.991136 L 73.025 65.991136 73.81875 64.61632 z" />
  <path d="M 76.2 65.991136 L 74.6125 65.991136 75.40625 64.61632 z" />
  <path d="M 83.34375 56.367428 L 81.75625 56.367428 82.55 54.992613 z" />
  <path d="M 82.55 57.742244 L 80.9625 57.742244 81.75625 56.367428 z" />
  <path d="M 84.1375 57.742244 L 82.55 57.742244 83.34375 56.367428 z" />
  <path d="M 81.75625 59.117059 L 80.16875 59.117059 80.9625 57.742244 z" />
  <path d="M 80.9625 60.491874 L 79.375 60.491874 80.16875 59.117059 z" />
  <path d="M 82.55 60.491874 L 80.9625 60.491874 81.75625 59.117059 z" />
  <path d="M 84.93125 59.117059 L 83.34375 59.117059 84.1375 57.742244 z" />
  <path d="M 84.1375 60.491874 L 82.55 60.491874 83.34375 59.117059 z" />
  <path d="M 85.725 60.491874 L 84.1375 60.491874 84.93125 59.117059 z" />
  <path d="M 80.16875 61.86669 L 78.58125 61.86669 79.375 60.491874 z" />
  <path d="M 79.375 63.241505 L 77.7875 63.241505 78.58125 61.86669 z" />
  <path d="M 80.9625 63.241505 L 79.375 63.241505 80.16875 61.86669 z" />
  <path d="M 78.58125 64.61632 L 76.99375 64.61632 77.7875 63.241505 z" />
  <path d="M 77.7875 65.991136 L 76.2 65.991136 76.99375 64.61632 z" />
  <path d="M 79.375 65.991136 L 77.7875 65.991136 78.58125 64.61632 z" />
  <path d="M 81.75625 64.61632 L 80.16875 64.61632 80.9625 63.241505 z" />
  <path d="M 80.9625 65.991136 L 79.375 65.991136 80.16875 64.61632 z" />
  <path d="M 82.55 65.991136 L 80.9625 65.991136 81.75625 64.61632 z" />
  <path d="M 86.51875 61.86669 L 84.93125 61.86669 85.725 60.491874 z" />
  <path d="M 85.725 63.241505 L 84.1375 63.241505 84.93125 61.86669 z" />
  <path d="M 87.3125 63.241505 L 85.725 63.241505 86.51875 61.86669 z" />
  <path d="M 84.93125 64.61632 L 83.34375 64.61632 84.1375 63.241505 z" />
  <path d="M 84.1375 65.991136 L 82.55 65.991136 83.34375 64.61632 z" />
  <path d="M 85.725 65.991136 L 84.1375 65.991136 84.93125 64.61632 z" />
  <path d="M 88.10625 64.61632 L 86.51875 64.61632 87.3125 63.241505 z" />
  <path d="M 87.3125 65.991136 L 85.725 65.991136 86.51875 64.61632 z" />
  <path d="M 88.9 65.991136 L 87.3125 65.991136 88.10625 64.61632 z" />
  <path d="M 64.29375 67.365951 L 62.70625 67.365951 63.5 65.991136 z" />
  <path d="M 63.5 68.740766 L 61.9125 68.740766 62.70625 67.365951 z" />
  <path d="M 65.0875 68.740766 L 63.5 68.740766 64.29375 67.365951 z" />
  <path d="M 62.70625 70.115582 L 61.11875 70.115582 61.9125 68.740766 z" />
  <path d="M 61.9125 71.490397 L 60.325 71.490397 61.11875 70.115582 z" />
  <path d="M 63.5 71.490397 L 61.9125 71.490397 62.70625 70.115582 z" />
  <path d="M 65.88125 70.115582 L 64.29375 70.115582 65.0875 68.740766 z" />
  <path d="M 65.0875 71.490397 L 63.5 71.490397 64.29375 70.115582 z" />
  <path d="M 66.675 71.490397 L 65.0875 71.490397 65.88125 70.115582 z" />
  <path d="M 61.11875 72.865212 L 59.53125 72.865212 60.325 71.490397 z" />
  <path d="M 60.325 74.240028 L 58.7375 74.240028 59.53125 72.865212 z" />
  <path d="M 61.9125 74.240028 L 60.325 74.240028 61.11875 72.865212 z" />
  <path d="M 59.53125 75.614843 L 57.94375 75.614843 58.7375 74.240028 z" />
  <path d="M 58.7375 76.989658 L 57.15 76.989658 57.94375 75.614843 z" />
  <path d="M 60.325 76.989658 L 58.7375 76.989658 59.53125 75.614843 z" />
  <path d="M 62.70625 75.614843 L 61.11875 75.614843 61.9125 74.240028 z" />
  <path d="M 61.9125 76.989658 L 60.325 76.989658 61.11875 75.614843 z" />
  <path d="M 63.5 76.989658 L 61.9125 76.989658 62.70625 75.614843 z" />
  <path d="M 67.46875 72.865212 L 65.88125 72.865212 66.675 71.490397 z" />
  <path d="M 66.675 74.240028 L 65.0875 74.240028 65.88125 72.865212 z" />
  <path d="M 68.2625 74.240028 L 66.675 74.240028 67.46875 72.865212 z" />
  <path d="M 65.88125 75.614843 L 64.29375 75.614843 65.0875 74.240028 z" />
  <path d="M 65.0875 76.989658 L 63.5 76.989658 64.29375 75.614843 z" />
  <path d="M 66.675 76.989658 L 65.0875 76.989658 65.88125 75.614843 z" />
  <path d="M 69.05625 75.614843 L 67.46875 75.614843 68.2625 74.240028 z" />
  <path d="M 68.2625 76.989658 L 66.675 76.989658 67.46875 75.614843 z" />
  <path d="M 69.85 76.989658 L 68.2625 76.989658 69.05625 75.614843 z" />
  <path d="M 57.94375 78.364474 L 56.35625 78.364474 57.15 76.989658 z" />
  <path d="M 57.15 79.739289 L 55.5625 79.739289 56.35625 78.364474 z" />
  <path d="M 58.7375 79.739289 L 57.15 79.739289 57.94375 78.364474 z" />
  <path d="M 56.35625 81.114104 L 54.76875 81.114104 55.5625 79.739289 z" />
  <path d="M 55.5625 82.48892 L 53.975 82.48892 54.76875 81.114104 z" />
  <path d="M 57.15 82.48892 L 55.5625 82.48892 56.35625 81.114104 z" />
  <path d="M 59.53125 81.114104 L 57.94375 81.114104 58.7375 79.739289 z" />
  <path d="M 58.7375 82.48892 L 57.15 82.48892 57.94375 81.114104 z" />
  <path d="M 60.325 82.48892 L 58.7375 82.48892 59.53125 81.114104 z" />
  <path d="M 54.76875 83.863735 L 53.18125 83.863735 53.975 82.48892 z" />
  <path d="M 53.975 85.23855 L 52.3875 85.23855 53.18125 83.863735 z" />
  <path d="M 55.5625 85.23855 L 53.975 85.23855 54.76875 83.863735 z" />
  <path d="M 53.18125 86.613366 L 51.59375 86.613366 52.3875 85.23855 z" />
  <path d="M 52.3875 87.988181 L 50.8 87.988181 51.59375 86.613366 z" />
  <path d="M 53.975 87.988181 L 52.3875 87.988181 53.18125 86.613366 z" />
  <path d="M 56.35625 86.613366 L 54.76875 86.613366 55.5625 85.23855 z" />
  <path d="M 55.5625 87.988181 L 53.975 87.988181 54.76875 86.613366 z" />
  <path d="M 57.15 87.988181 L 55.5625 87.988181 56.35625 86.613366 z" />
  <path d="M 61.11875 83.863735 L 59.53125 83.863735 60.325 82.48892 z" />
  <path d="M 60.325 85.23855 L 58.7375 85.23855 59.53125 83.863735 z" />
  <path d="M 61.9125 85.23855 L 60.325 85.23855 61.11875 83.863735 z" />
  <path d="M 59.53125 86.613366 L 57.94375 86.613366 58.7375 85.23855 z" />
  <path d="M 58.7375 87.988181 L 57.15 87.988181 57.94375 86.613366 z" />
  <path d="M 60.325 87.988181 L 58.7375 87.988181 59.53125 86.613366 z" />
  <path d="M 62.70625 86.613366 L 61.11875 86.613366 61.9125 85.23855 z" />
  <path d="M 61.9125 87.988181 L 60.325 87.988181 61.11875 86.613366 z" />
  <path d="M 63.5 87.988181 L 61.9125 87.988181 62.70625 86.613366 z" />
  <path d="M 70.64375 78.364474 L 69.05625 78.364474 69.85 76.989658 z" />
  <path d="M 69.85 79.739289 L 68.2625 79.739289 69.05625 78.364474 z" />
  <path d="M 71.4375 79.739289 L 69.85 79.739289 70.64375 78.364474 z" />
  <path d="M 69.05625 81.114104 L 67.46875 81.114104 68.2625 79.739289 z" />
  <path d="M 68.2625 82.48892 L 66.675 82.48892 67.46875 81.114104 z" />
  <path d="M 69.85 82.48892 L 68.2625 82.48892 69.05625 81.114104 z" />
  <path d="M 72.23125 81.114104 L 70.64375 81.114104 71.4375 79.739289 z" />
  <path d="M 71.4375 82.48892 L 69.85 82.48892 70.64375 81.114104 z" />
  <path d="M 73.025 82.48892 L 71.4375 82.48892 72.23125 81.114104 z" />
  <path d="M 67.46875 83.863735 L 65.88125 83.863735 66.675 82.48892 z" />
  <path d="M 66.675 85.23855 L 65.0875 85.23855 65.88125 83.863735 z" />
  <path d="M 68.2625 85.23855 L 66.675 85.23855 67.46875 83.863735 z" />
  <path d="M 65.88125 86.613366 L 64.29375 86.613366 65.0875 85.23855 z" />
  <path d="M 65.0875 87.988181 L 63.5 87.988181 64.29375 86.613366 z" />
  <path d="M 66.675 87.988181 L 65.0875 87.988181 65.88125 86.613366 z" />
  <path d="M 69.05625 86.613366 L 67.46875 86.613366 68.2625 85.23855 z" />
  <path d="M 68.2625 87.988181 L 66.675 87.988181 67.46875 86.613366 z" />
  <path d="M 69.85 87.988181 L 68.2625 87.988181 69.05625 86.613366 z" />
  <path d="M 73.81875 83.863735 L 72.23125 83.863735 73.025 82.48892 z" />
  <path d="M 73.025 85.23855 L 71.4375 85.23855 72.23125 83.863735 z" />
  <path d="M 74.6125 85.23855 L 73.025 85.23855 73.81875 83.863735 z" />
  <path d="M 72.23125 86.613366 L 70.64375 86.613366 71.4375 85.23855 z" />
  <path d="M 71.4375 87.988181 L 69.85 87.988181 70.64375 86.613366 z" />
  <path d="M 73.025 87.988181 L 71.4375 87.988181 72.23125 86.613366 z" />
  <path d="M 75.40625 86.613366 L 73.81875 86.613366 74.6125 85.23855 z" />
  <path d="M 74.6125 87.988181 L 73.025 87.988181 73.81875 86.613366 z" />
  <path d="M 76.2 87.988181 L 74.6125 87.988181 75.40625 86.613366 z" />
  <path d="M 89.69375 67.365951 L 88.10625 67.365951 88.9 65.991136 z" />
  <path d="M 88.9 68.740766 L 87.3125 68.740766 88.10625 67.365951 z" />
  <path d="M 90.4875 68.740766 L 88.9 68.740766 89.69375 67.365951 z" />
  <path d="M 88.10625 70.115582 L 86.51875 70.115582 87.3125 68.740766 z" />
  <path d="M 87.3125 71.490397 L 85.725 71.490397 86.51875 70.115582 z" />
  <path d="M 88.9 71.490397 L 87.3125 71.490397 88.10625 70.115582 z" />
  <path d="M 91.28125 70.115582 L 89.69375 70.115582 90.4875 68.740766 z" />
  <path d="M 90.4875 71.490397 L 88.9 71.490397 89.69375 70.115582 z" />
  <path d="M 92.075 71.490397 L 90.4875 71.490397 91.28125 70.115582 z" />
  <path d="M 86.51875 72.865212 L 84.93125 72.865212 85.725 71.490397 z" />
  <path d="M 85.725 74.240028 L 84.1375 74.240028 84.93125 72.865212 z" />
  <path d="M 87.3125 74.240028 L 85.725 74.240028 86.51875 72.865212 z" />
  <path d="M 84.93125 75.614843 L 83.34375 75.614843 84.1375 74.240028 z" />
  <path d="M 84.1375 76.989658 L 82.55 76.989658 83.34375 75.614843 z" />
  <path d="M 85.725 76.989658 L 84.1375 76.989658 84.93125 75.614843 z" />
  <path d="M 88.10625 75.614843 L 86.51875 75.614843 87.3125 74.240028 z" />
  <path d="M 87.3125 76.989658 L 85.725 76.989658 86.51875 75.614843 z" />
  <path d="M 88.9 76.989658 L 87.3125 76.989658 88.10625 75.614843 z" />
  <path d="M 92.86875 72.865212 L 91.28125 72.865212 92.075 71.490397 z" />
  <path d="M 92.075 74.240028 L 90.4875 74.240028 91.28125 72.865212 z" />
  <path d="M 93.6625 74.240028 L 92.075 74.240028 92.86875 72.865212 z" />
  <path d="M 91.28125 75.614843 L 89.69375 75.614843 90.4875 74.240028 z" />
  <path d="M 90.4875 76.989658 L 88.9 76.989658 89.69375 75.614843 z" />
  <path d="M 92.075 76.989658 L 90.4875 76.989658 91.28125 75.614843 z" />
  <path d="M 94.45625 75.614843 L 92.86875 75.614843 93.6625 74.240028 z" />
  <path d="M 93.6625 76.989658 L 92.075 76.989658 92.86875 75.614843 z" />
  <path d="M 95.25 76.989658 L 93.6625 76.989658 94.45625 75.614843 z" />
  <path d="M 83.34375 78.364474 L 81.75625 78.364474 82.55 76.989658 z" />
  <path d="M 82.55 79.739289 L 80.9625 79.739289 81.75625 78.364474 z" />
  <path d="M 84.1375 79.739289 L 82.55 79.739289 83.34375 78.364474 z" />
  <path d="M 81.75625 81.114104 L 80.16875 81.114104 80.9625 79.739289 z" />
  <path d="M 80.9625 82.48892 L 79.375 82.48892 80.16875 81.114104 z" />
  <path d="M 82.55 82.48892 L 80.9625 82.48892 81.75625 81.114104 z" />
  <path d="M 84.93125 81.114104 L 83.34375 81.114104 84.1375 79.739289 z" />
  <path d="M 84.1375 82.48892 L 82.55 82.48892 83.34375 81.114104 z" />
  <path d="M 85.725 82.48892 L 84.1375 82.48892 84.93125 81.114104 z" />
  <path d="M 80.16875 83.863735 L 78.58125 83.863735 79.375 82.48892 z" />
  <path d="M 79.375 85.23855 L 77.7875 85.23855 78.58125 83.863735 z" />
  <path d="M 80.9625 85.23855 L 79.375 85.23855 80.16875 83.863735 z" />
  <path d="M 78.58125 86.613366 L 76.99375 86.613366 77.7875 85.23855 z" />
  <path d="M 77.7875 87.988181 L 76.2 87.988181 76.99375 86.613366 z" />
  <path d="M 79.375 87.988181 L 77.7875 87.988181 78.58125 86.613366 z" />
  <path d="M 81.75625 86.613366 L 80.16875 86.613366 80.9625 85.23855 z" />
  <path d="M 80.9625 87.988181 L 79.375 87.988181 80.16875 86.613366 z" />
  <path d="M 82.55 87.988181 L 80.9625 87.988181 81.75625 86.613366 z" />
  <path d="M 86.51875 83.863735 L 84.93125 83.863735 85.725 82.48892 z" />
  <path d="M 85.725 85.23855 L 84.1375 85.23855 84.93125 83.863735 z" />
  <path d="M 87.3125 85.23855 L 85.725 85.23855 86.51875 83.863735 z" />
  <path d="M 84.93125 86.613366 L 83.34375 86.613366 84.1375 85.23855 z" />
  <path d="M 84.1375 87.988181 L 82.55 87.988181 83.34375 86.613366 z" />
  <path d="M 85.725 87.988181 L 84.1375 87.988181 84.93125 86.613366 z" />
  <path d="M 88.10625 86.613366 L 86.51875 86.613366 87.3125 85.23855 z" />
  <path d="M 87.3125 87.988181 L 85.725 87.988181 86.51875 86.613366 z" />
  <path d="M 88.9 87.988181 L 87.3125 87.988181 88.10625 86.613366 z" />
  <path d="M 96.04375 78.364474 L 94.45625 78.364474 95.25 76.989658 z" />
  <path d="M 95.25 79.739289 L 93.6625 79.739289 94.45625 78.364474 z" />
  <path d="M 96.8375 79.739289 L 95.25 79.739289 96.04375 78.364474 z" />
  <path d="M 94.45625 81.114104 L 92.86875 81.114104 93.6625 79.739289 z" />
  <path d="M 93.6625 82.48892 L 92.075 82.48892 92.86875 81.114104 z" />
  <path d="M 95.25 82.48892 L 93.6625 82.48892 94.45625 81.114104 z" />
  <path d="M 97.63125 81.114104 L 96.04375 81.114104 96.8375 79.739289 z" />
  <path d="M 96.8375 82.48892 L 95.25 82.48892 96.04375 81.114104 z" />
  <path d="M 98.425 82.48892 L 96.8375 82.48892 97.63125 81.114104 z" />
  <path d="M 92.86875 83.863735 L 91.28125 83.863735 92.075 82.48892 z" />
  <path d="M 92.075 85.23855 L 90.4875 85.23855 91.28125 83.863735 z" />
  <path d="M 93.6625 85.23855 L 92.075 85.23855 92.86875 83.863735 z" />
  <path d="M 91.28125 86.613366 L 89.69375 86.613366 90.4875 85.23855 z" />
  <path d="M 90.4875 87.988181 L 88.9 87.988181 89.69375 86.613366 z" />
  <path d="M 92.075 87.988181 L 90.4875 87.988181 91.28125 86.613366 z" />
  <path d="M 94.45625 86.613366 L 92.86875 86.613366 93.6625 85.23855 z" />
  <path d="M 93.6625 87.988181 L 92.075 87.988181 92.86875 86.613366 z" />
  <path d="M 95.25 87.988181 L 93.6625 87.988181 94.45625 86.613366 z" />
  <path d="M 99.21875 83.863735 L 97.63125 83.863735 98.425 82.48892 z" />
  <path d="M 98.425 85.23855 L 96.8375 85.23855 97.63125 83.863735 z" />
  <path d="M 100.0125 85.23855 L 98.425 85.23855 99.21875 83.863735 z" />
  <path d="M 97.63125 86.613366 L 96.04375 86.613366 96.8375 85.23855 z" />
  <path d="M 96.8375 87.988181 L 95.25 87.988181 96.04375 86.613366 z" />
  <path d="M 98.425 87.988181 L 96.8375 87.988181 97.63125 86.613366 z" />
  <path d="M 100.80625 86.613366 L 99.21875 86.613366 100.0125 85.23855 z" />
  <path d="M 100.0125 87.988181 L 98.425 87.988181 99.21875 86.613366 z" />
  <path d="M 101.6 87.988181 L 100.0125 87.988181 100.80625 86.613366 z" />
</g>
</svg>
