<?xml version="1.0" encoding="UTF-8"?>
<svg xmlns="http://www.w3.org/2000/svg"
     xmlns:xlink="http://www.w3.org/1999/xlink"
     version="1.2"
     width="80mm" height="69.28mm" viewBox="0 0 80 69.28"
     stroke="none"
     fill="#000000"
     stroke-width="0.3"
     font-size="3.88"
>
<g fill="#F4E6D6" id="img-1d3f48b7-1">
  <path d="M80,69.28 L 78.75 69.28 79.38 68.2 z"/>
  <path d="M78.75,69.28 L 77.5 69.28 78.12 68.2 z"/>
  <path d="M79.38,68.2 L 78.12 68.2 78.75 67.12 z"/>
  <path d="M77.5,69.28 L 76.25 69.28 76.88 68.2 z"/>
  <path d="M76.25,69.28 L 75 69.28 75.62 68.2 z"/>
  <path d="M76.88,68.2 L 75.62 68.2 76.25 67.12 z"/>
  <path d="M78.75,67.12 L 77.5 67.12 78.12 66.03 z"/>
  <path d="M77.5,67.12 L 76.25 67.12 76.88 66.03 z"/>
  <path d="M78.12,66.03 L 76.88 66.03 77.5 64.95 z"/>
  <path d="M75,69.28 L 73.75 69.28 74.38 68.2 z"/>
  <path d="M73.75,69.28 L 72.5 69.28 73.12 68.2 z"/>
  <path d="M74.38,68.2 L 73.12 68.2 73.75 67.12 z"/>
  <path d="M72.5,69.28 L 71.25 69.28 71.88 68.2 z"/>
  <path d="M71.25,69.28 L 70 69.28 70.62 68.2 z"/>
  <path d="M71.88,68.2 L 70.62 68.2 71.25 67.12 z"/>
  <path d="M73.75,67.12 L 72.5 67.12 73.12 66.03 z"/>
  <path d="M72.5,67.12 L 71.25 67.12 71.88 66.03 z"/>
  <path d="M73.12,66.03 L 71.88 66.03 72.5 64.95 z"/>
  <path d="M77.5,64.95 L 76.25 64.95 76.88 63.87 z"/>
  <path d="M76.25,64.95 L 75 64.95 75.62 63.87 z"/>
  <path d="M76.88,63.87 L 75.62 63.87 76.25 62.79 z"/>
  <path d="M75,64.95 L 73.75 64.95 74.38 63.87 z"/>
  <path d="M73.75,64.95 L 72.5 64.95 73.12 63.87 z"/>
  <path d="M74.38,63.87 L 73.12 63.87 73.75 62.79 z"/>
  <path d="M76.25,62.79 L 75 62.79 75.62 61.7 z"/>
  <path d="M75,62.79 L 73.75 62.79 74.38 61.7 z"/>
  <path d="M75.62,61.7 L 74.38 61.7 75 60.62 z"/>
  <path d="M70,69.28 L 68.75 69.28 69.38 68.2 z"/>
  <path d="M68.75,69.28 L 67.5 69.28 68.12 68.2 z"/>
  <path d="M69.38,68.2 L 68.12 68.2 68.75 67.12 z"/>
  <path d="M67.5,69.28 L 66.25 69.28 66.88 68.2 z"/>
  <path d="M66.25,69.28 L 65 69.28 65.62 68.2 z"/>
  <path d="M66.88,68.2 L 65.62 68.2 66.25 67.12 z"/>
  <path d="M68.75,67.12 L 67.5 67.12 68.12 66.03 z"/>
  <path d="M67.5,67.12 L 66.25 67.12 66.88 66.03 z"/>
  <path d="M68.12,66.03 L 66.88 66.03 67.5 64.95 z"/>
  <path d="M65,69.28 L 63.75 69.28 64.38 68.2 z"/>
  <path d="M63.75,69.28 L 62.5 69.28 63.12 68.2 z"/>
  <path d="M64.38,68.2 L 63.12 68.2 63.75 67.12 z"/>
  <path d="M62.5,69.28 L 61.25 69.28 61.88 68.2 z"/>
  <path d="M61.25,69.28 L 60 69.28 60.62 68.2 z"/>
  <path d="M61.88,68.2 L 60.62 68.2 61.25 67.12 z"/>
  <path d="M63.75,67.12 L 62.5 67.12 63.12 66.03 z"/>
  <path d="M62.5,67.12 L 61.25 67.12 61.88 66.03 z"/>
  <path d="M63.12,66.03 L 61.88 66.03 62.5 64.95 z"/>
  <path d="M67.5,64.95 L 66.25 64.95 66.88 63.87 z"/>
  <path d="M66.25,64.95 L 65 64.95 65.62 63.87 z"/>
  <path d="M66.88,63.87 L 65.62 63.87 66.25 62.79 z"/>
  <path d="M65,64.95 L 63.75 64.95 64.38 63.87 z"/>
  <path d="M63.75,64.95 L 62.5 64.95 63.12 63.87 z"/>
  <path d="M64.38,63.87 L 63.12 63.87 63.75 62.79 z"/>
  <path d="M66.25,62.79 L 65 62.79 65.62 61.7 z"/>
  <path d="M65,62.79 L 63.75 62.79 64.38 61.7 z"/>
  <path d="M65.62,61.7 L 64.38 61.7 65 60.62 z"/>
  <path d="M75,60.62 L 73.75 60.62 74.38 59.54 z"/>
  <path d="M73.75,60.62 L 72.5 60.62 73.12 59.54 z"/>
  <path d="M74.38,59.54 L 73.12 59.54 73.75 58.46 z"/>
  <path d="M72.5,60.62 L 71.25 60.62 71.88 59.54 z"/>
  <path d="M71.25,60.62 L 70 60.62 70.62 59.54 z"/>
  <path d="M71.88,59.54 L 70.62 59.54 71.25 58.46 z"/>
  <path d="M73.75,58.46 L 72.5 58.46 73.12 57.37 z"/>
  <path d="M72.5,58.46 L 71.25 58.46 71.88 57.37 z"/>
  <path d="M73.12,57.37 L 71.88 57.37 72.5 56.29 z"/>
  <path d="M70,60.62 L 68.75 60.62 69.38 59.54 z"/>
  <path d="M68.75,60.62 L 67.5 60.62 68.12 59.54 z"/>
  <path d="M69.38,59.54 L 68.12 59.54 68.75 58.46 z"/>
  <path d="M67.5,60.62 L 66.25 60.62 66.88 59.54 z"/>
  <path d="M66.25,60.62 L 65 60.62 65.62 59.54 z"/>
  <path d="M66.88,59.54 L 65.62 59.54 66.25 58.46 z"/>
  <path d="M68.75,58.46 L 67.5 58.46 68.12 57.37 z"/>
  <path d="M67.5,58.46 L 66.25 58.46 66.88 57.37 z"/>
  <path d="M68.12,57.37 L 66.88 57.37 67.5 56.29 z"/>
  <path d="M72.5,56.29 L 71.25 56.29 71.88 55.21 z"/>
  <path d="M71.25,56.29 L 70 56.29 70.62 55.21 z"/>
  <path d="M71.88,55.21 L 70.62 55.21 71.25 54.13 z"/>
  <path d="M70,56.29 L 68.75 56.29 69.38 55.21 z"/>
  <path d="M68.75,56.29 L 67.5 56.29 68.12 55.21 z"/>
  <path d="M69.38,55.21 L 68.12 55.21 68.75 54.13 z"/>
  <path d="M71.25,54.13 L 70 54.13 70.62 53.04 z"/>
  <path d="M70,54.13 L 68.75 54.13 69.38 53.04 z"/>
  <path d="M70.62,53.04 L 69.38 53.04 70 51.96 z"/>
  <path d="M60,69.28 L 58.75 69.28 59.38 68.2 z"/>
  <path d="M58.75,69.28 L 57.5 69.28 58.12 68.2 z"/>
  <path d="M59.38,68.2 L 58.12 68.2 58.75 67.12 z"/>
  <path d="M57.5,69.28 L 56.25 69.28 56.88 68.2 z"/>
  <path d="M56.25,69.28 L 55 69.28 55.62 68.2 z"/>
  <path d="M56.88,68.2 L 55.62 68.2 56.25 67.12 z"/>
  <path d="M58.75,67.12 L 57.5 67.12 58.12 66.03 z"/>
  <path d="M57.5,67.12 L 56.25 67.12 56.88 66.03 z"/>
  <path d="M58.12,66.03 L 56.88 66.03 57.5 64.95 z"/>
  <path d="M55,69.28 L 53.75 69.28 54.38 68.2 z"/>
  <path d="M53.75,69.28 L 52.5 69.28 53.12 68.2 z"/>
  <path d="M54.38,68.2 L 53.12 68.2 53.75 67.12 z"/>
  <path d="M52.5,69.28 L 51.25 69.28 51.88 68.2 z"/>
  <path d="M51.25,69.28 L 50 69.28 50.62 68.2 z"/>
  <path d="M51.88,68.2 L 50.62 68.2 51.25 67.12 z"/>
  <path d="M53.75,67.12 L 52.5 67.12 53.12 66.03 z"/>
  <path d="M52.5,67.12 L 51.25 67.12 51.88 66.03 z"/>
  <path d="M53.12,66.03 L 51.88 66.03 52.5 64.95 z"/>
  <path d="M57.5,64.95 L 56.25 64.95 56.88 63.87 z"/>
  <path d="M56.25,64.95 L 55 64.95 55.62 63.87 z"/>
  <path d="M56.88,63.87 L 55.62 63.87 56.25 62.79 z"/>
  <path d="M55,64.95 L 53.75 64.95 54.38 63.87 z"/>
  <path d="M53.75,64.95 L 52.5 64.95 53.12 63.87 z"/>
  <path d="M54.38,63.87 L 53.12 63.87 53.75 62.79 z"/>
  <path d="M56.25,62.79 L 55 62.79 55.62 61.7 z"/>
  <path d="M55,62.79 L 53.75 62.79 54.38 61.7 z"/>
  <path d="M55.62,61.7 L 54.38 61.7 55 60.62 z"/>
  <path d="M50,69.28 L 48.75 69.28 49.38 68.2 z"/>
  <path d="M48.75,69.28 L 47.5 69.28 48.12 68.2 z"/>
  <path d="M49.38,68.2 L 48.12 68.2 48.75 67.12 z"/>
  <path d="M47.5,69.28 L 46.25 69.28 46.88 68.2 z"/>
  <path d="M46.25,69.28 L 45 69.28 45.62 68.2 z"/>
  <path d="M46.88,68.2 L 45.62 68.2 46.25 67.12 z"/>
  <path d="M48.75,67.12 L 47.5 67.12 48.12 66.03 z"/>
  <path d="M47.5,67.12 L 46.25 67.12 46.88 66.03 z"/>
  <path d="M48.12,66.03 L 46.88 66.03 47.5 64.95 z"/>
  <path d="M45,69.28 L 43.75 69.28 44.38 68.2 z"/>
  <path d="M43.75,69.28 L 42.5 69.28 43.12 68.2 z"/>
  <path d="M44.38,68.2 L 43.12 68.2 43.75 67.12 z"/>
  <path d="M42.5,69.28 L 41.25 69.28 41.88 68.2 z"/>
  <path d="M41.25,69.28 L 40 69.28 40.62 68.2 z"/>
  <path d="M41.88,68.2 L 40.62 68.2 41.25 67.12 z"/>
  <path d="M43.75,67.12 L 42.5 67.12 43.12 66.03 z"/>
  <path d="M42.5,67.12 L 41.25 67.12 41.88 66.03 z"/>
  <path d="M43.12,66.03 L 41.88 66.03 42.5 64.95 z"/>
  <path d="M47.5,64.95 L 46.25 64.95 46.88 63.87 z"/>
  <path d="M46.25,64.95 L 45 64.95 45.62 63.87 z"/>
  <path d="M46.88,63.87 L 45.62 63.87 46.25 62.79 z"/>
  <path d="M45,64.95 L 43.75 64.95 44.38 63.87 z"/>
  <path d="M43.75,64.95 L 42.5 64.95 43.12 63.87 z"/>
  <path d="M44.38,63.87 L 43.12 63.87 43.75 62.79 z"/>
  <path d="M46.25,62.79 L 45 62.79 45.62 61.7 z"/>
  <path d="M45,62.79 L 43.75 62.79 44.38 61.7 z"/>
  <path d="M45.62,61.7 L 44.38 61.7 45 60.62 z"/>
  <path d="M55,60.62 L 53.75 60.62 54.38 59.54 z"/>
  <path d="M53.75,60.62 L 52.5 60.62 53.12 59.54 z"/>
  <path d="M54.38,59.54 L 53.12 59.54 53.75 58.46 z"/>
  <path d="M52.5,60.62 L 51.25 60.62 51.88 59.54 z"/>
  <path d="M51.25,60.62 L 50 60.62 50.62 59.54 z"/>
  <path d="M51.88,59.54 L 50.62 59.54 51.25 58.46 z"/>
  <path d="M53.75,58.46 L 52.5 58.46 53.12 57.37 z"/>
  <path d="M52.5,58.46 L 51.25 58.46 51.88 57.37 z"/>
  <path d="M53.12,57.37 L 51.88 57.37 52.5 56.29 z"/>
  <path d="M50,60.62 L 48.75 60.62 49.38 59.54 z"/>
  <path d="M48.75,60.62 L 47.5 60.62 48.12 59.54 z"/>
  <path d="M49.38,59.54 L 48.12 59.54 48.75 58.46 z"/>
  <path d="M47.5,60.62 L 46.25 60.62 46.88 59.54 z"/>
  <path d="M46.25,60.62 L 45 60.62 45.62 59.54 z"/>
  <path d="M46.88,59.54 L 45.62 59.54 46.25 58.46 z"/>
  <path d="M48.75,58.46 L 47.5 58.46 48.12 57.37 z"/>
  <path d="M47.5,58.46 L 46.25 58.46 46.88 57.37 z"/>
  <path d="M48.12,57.37 L 46.88 57.37 47.5 56.29 z"/>
  <path d="M52.5,56.29 L 51.25 56.29 51.88 55.21 z"/>
  <path d="M51.25,56.29 L 50 56.29 50.62 55.21 z"/>
  <path d="M51.88,55.21 L 50.62 55.21 51.25 54.13 z"/>
  <path d="M50,56.29 L 48.75 56.29 49.38 55.21 z"/>
  <path d="M48.75,56.29 L 47.5 56.29 48.12 55.21 z"/>
  <path d="M49.38,55.21 L 48.12 55.21 48.75 54.13 z"/>
  <path d="M51.25,54.13 L 50 54.13 50.62 53.04 z"/>
  <path d="M50,54.13 L 48.75 54.13 49.38 53.04 z"/>
  <path d="M50.62,53.04 L 49.38 53.04 50 51.96 z"/>
  <path d="M70,51.96 L 68.75 51.96 69.38 50.88 z"/>
  <path d="M68.75,51.96 L 67.5 51.96 68.12 50.88 z"/>
  <path d="M69.38,50.88 L 68.12 50.88 68.75 49.8 z"/>
  <path d="M67.5,51.96 L 66.25 51.96 66.88 50.88 z"/>
  <path d="M66.25,51.96 L 65 51.96 65.62 50.88 z"/>
  <path d="M66.88,50.88 L 65.62 50.88 66.25 49.8 z"/>
  <path d="M68.75,49.8 L 67.5 49.8 68.12 48.71 z"/>
  <path d="M67.5,49.8 L 66.25 49.8 66.88 48.71 z"/>
  <path d="M68.12,48.71 L 66.88 48.71 67.5 47.63 z"/>
  <path d="M65,51.96 L 63.75 51.96 64.38 50.88 z"/>
  <path d="M63.75,51.96 L 62.5 51.96 63.12 50.88 z"/>
  <path d="M64.38,50.88 L 63.12 50.88 63.75 49.8 z"/>
  <path d="M62.5,51.96 L 61.25 51.96 61.88 50.88 z"/>
  <path d="M61.25,51.96 L 60 51.96 60.62 50.88 z"/>
  <path d="M61.88,50.88 L 60.62 50.88 61.25 49.8 z"/>
  <path d="M63.75,49.8 L 62.5 49.8 63.12 48.71 z"/>
  <path d="M62.5,49.8 L 61.25 49.8 61.88 48.71 z"/>
  <path d="M63.12,48.71 L 61.88 48.71 62.5 47.63 z"/>
  <path d="M67.5,47.63 L 66.25 47.63 66.88 46.55 z"/>
  <path d="M66.25,47.63 L 65 47.63 65.62 46.55 z"/>
  <path d="M66.88,46.55 L 65.62 46.55 66.25 45.47 z"/>
  <path d="M65,47.63 L 63.75 47.63 64.38 46.55 z"/>
  <path d="M63.75,47.63 L 62.5 47.63 63.12 46.55 z"/>
  <path d="M64.38,46.55 L 63.12 46.55 63.75 45.47 z"/>
  <path d="M66.25,45.47 L 65 45.47 65.62 44.38 z"/>
  <path d="M65,45.47 L 63.75 45.47 64.38 44.38 z"/>
  <path d="M65.62,44.38 L 64.38 44.38 65 43.3 z"/>
  <path d="M60,51.96 L 58.75 51.96 59.38 50.88 z"/>
  <path d="M58.75,51.96 L 57.5 51.96 58.12 50.88 z"/>
  <path d="M59.38,50.88 L 58.12 50.88 58.75 49.8 z"/>
  <path d="M57.5,51.96 L 56.25 51.96 56.88 50.88 z"/>
  <path d="M56.25,51.96 L 55 51.96 55.62 50.88 z"/>
  <path d="M56.88,50.88 L 55.62 50.88 56.25 49.8 z"/>
  <path d="M58.75,49.8 L 57.5 49.8 58.12 48.71 z"/>
  <path d="M57.5,49.8 L 56.25 49.8 56.88 48.71 z"/>
  <path d="M58.12,48.71 L 56.88 48.71 57.5 47.63 z"/>
  <path d="M55,51.96 L 53.75 51.96 54.38 50.88 z"/>
  <path d="M53.75,51.96 L 52.5 51.96 53.12 50.88 z"/>
  <path d="M54.38,50.88 L 53.12 50.88 53.75 49.8 z"/>
  <path d="M52.5,51.96 L 51.25 51.96 51.88 50.88 z"/>
  <path d="M51.25,51.96 L 50 51.96 50.62 50.88 z"/>
  <path d="M51.88,50.88 L 50.62 50.88 51.25 49.8 z"/>
  <path d="M53.75,49.8 L 52.5 49.8 53.12 48.71 z"/>
  <path d="M52.5,49.8 L 51.25 49.8 51.88 48.71 z"/>
  <path d="M53.12,48.71 L 51.88 48.71 52.5 47.63 z"/>
  <path d="M57.5,47.63 L 56.25 47.63 56.88 46.55 z"/>
  <path d="M56.25,47.63 L 55 47.63 55.62 46.55 z"/>
  <path d="M56.88,46.55 L 55.62 46.55 56.25 45.47 z"/>
  <path d="M55,47.63 L 53.75 47.63 54.38 46.55 z"/>
  <path d="M53.75,47.63 L 52.5 47.63 53.12 46.55 z"/>
  <path d="M54.38,46.55 L 53.12 46.55 53.75 45.47 z"/>
  <path d="M56.25,45.47 L 55 45.47 55.62 44.38 z"/>
  <path d="M55,45.47 L 53.75 45.47 54.38 44.38 z"/>
  <path d="M55.62,44.38 L 54.38 44.38 55 43.3 z"/>
  <path d="M65,43.3 L 63.75 43.3 64.38 42.22 z"/>
  <path d="M63.75,43.3 L 62.5 43.3 63.12 42.22 z"/>
  <path d="M64.38,42.22 L 63.12 42.22 63.75 41.14 z"/>
  <path d="M62.5,43.3 L 61.25 43.3 61.88 42.22 z"/>
  <path d="M61.25,43.3 L 60 43.3 60.62 42.22 z"/>
  <path d="M61.88,42.22 L 60.62 42.22 61.25 41.14 z"/>
  <path d="M63.75,41.14 L 62.5 41.14 63.12 40.05 z"/>
  <path d="M62.5,41.14 L 61.25 41.14 61.88 40.05 z"/>
  <path d="M63.12,40.05 L 61.88 40.05 62.5 38.97 z"/>
  <path d="M60,43.3 L 58.75 43.3 59.38 42.22 z"/>
  <path d="M58.75,43.3 L 57.5 43.3 58.12 42.22 z"/>
  <path d="M59.38,42.22 L 58.12 42.22 58.75 41.14 z"/>
  <path d="M57.5,43.3 L 56.25 43.3 56.88 42.22 z"/>
  <path d="M56.25,43.3 L 55 43.3 55.62 42.22 z"/>
  <path d="M56.88,42.22 L 55.62 42.22 56.25 41.14 z"/>
  <path d="M58.75,41.14 L 57.5 41.14 58.12 40.05 z"/>
  <path d="M57.5,41.14 L 56.25 41.14 56.88 40.05 z"/>
  <path d="M58.12,40.05 L 56.88 40.05 57.5 38.97 z"/>
  <path d="M62.5,38.97 L 61.25 38.97 61.88 37.89 z"/>
  <path d="M61.25,38.97 L 60 38.97 60.62 37.89 z"/>
  <path d="M61.88,37.89 L 60.62 37.89 61.25 36.81 z"/>
  <path d="M60,38.97 L 58.75 38.97 59.38 37.89 z"/>
  <path d="M58.75,38.97 L 57.5 38.97 58.12 37.89 z"/>
  <path d="M59.38,37.89 L 58.12 37.89 58.75 36.81 z"/>
  <path d="M61.25,36.81 L 60 36.81 60.62 35.72 z"/>
  <path d="M60,36.81 L 58.75 36.81 59.38 35.72 z"/>
  <path d="M60.62,35.72 L 59.38 35.72 60 34.64 z"/>
  <path d="M40,69.28 L 38.75 69.28 39.38 68.2 z"/>
  <path d="M38.75,69.28 L 37.5 69.28 38.12 68.2 z"/>
  <path d="M39.38,68.2 L 38.12 68.2 38.75 67.12 z"/>
  <path d="M37.5,69.28 L 36.25 69.28 36.88 68.2 z"/>
  <path d="M36.25,69.28 L 35 69.28 35.62 68.2 z"/>
  <path d="M36.88,68.2 L 35.62 68.2 36.25 67.12 z"/>
  <path d="M38.75,67.12 L 37.5 67.12 38.12 66.03 z"/>
  <path d="M37.5,67.12 L 36.25 67.12 36.88 66.03 z"/>
  <path d="M38.12,66.03 L 36.88 66.03 37.5 64.95 z"/>
  <path d="M35,69.28 L 33.75 69.28 34.38 68.2 z"/>
  <path d="M33.75,69.28 L 32.5 69.28 33.12 68.2 z"/>
  <path d="M34.38,68.2 L 33.12 68.2 33.75 67.12 z"/>
  <path d="M32.5,69.28 L 31.25 69.28 31.88 68.2 z"/>
  <path d="M31.25,69.28 L 30 69.28 30.62 68.2 z"/>
  <path d="M31.88,68.2 L 30.62 68.2 31.25 67.12 z"/>
  <path d="M33.75,67.12 L 32.5 67.12 33.12 66.03 z"/>
  <path d="M32.5,67.12 L 31.25 67.12 31.88 66.03 z"/>
  <path d="M33.12,66.03 L 31.88 66.03 32.5 64.95 z"/>
  <path d="M37.5,64.95 L 36.25 64.95 36.88 63.87 z"/>
  <path d="M36.25,64.95 L 35 64.95 35.62 63.87 z"/>
  <path d="M36.88,63.87 L 35.62 63.87 36.25 62.79 z"/>
  <path d="M35,64.95 L 33.75 64.95 34.38 63.87 z"/>
  <path d="M33.75,64.95 L 32.5 64.95 33.12 63.87 z"/>
  <path d="M34.38,63.87 L 33.12 63.87 33.75 62.79 z"/>
  <path d="M36.25,62.79 L 35 62.79 35.62 61.7 z"/>
  <path d="M35,62.79 L 33.75 62.79 34.38 61.7 z"/>
  <path d="M35.62,61.7 L 34.38 61.7 35 60.62 z"/>
  <path d="M30,69.28 L 28.75 69.28 29.38 68.2 z"/>
  <path d="M28.75,69.28 L 27.5 69.28 28.12 68.2 z"/>
  <path d="M29.38,68.2 L 28.12 68.2 28.75 67.12 z"/>
  <path d="M27.5,69.28 L 26.25 69.28 26.88 68.2 z"/>
  <path d="M26.25,69.28 L 25 69.28 25.62 68.2 z"/>
  <path d="M26.88,68.2 L 25.62 68.2 26.25 67.12 z"/>
  <path d="M28.75,67.12 L 27.5 67.12 28.12 66.03 z"/>
  <path d="M27.5,67.12 L 26.25 67.12 26.88 66.03 z"/>
  <path d="M28.12,66.03 L 26.88 66.03 27.5 64.95 z"/>
  <path d="M25,69.28 L 23.75 69.28 24.38 68.2 z"/>
  <path d="M23.75,69.28 L 22.5 69.28 23.12 68.2 z"/>
  <path d="M24.38,68.2 L 23.12 68.2 23.75 67.12 z"/>
  <path d="M22.5,69.28 L 21.25 69.28 21.88 68.2 z"/>
  <path d="M21.25,69.28 L 20 69.28 20.62 68.2 z"/>
  <path d="M21.88,68.2 L 20.62 68.2 21.25 67.12 z"/>
  <path d="M23.75,67.12 L 22.5 67.12 23.12 66.03 z"/>
  <path d="M22.5,67.12 L 21.25 67.12 21.88 66.03 z"/>
  <path d="M23.12,66.03 L 21.88 66.03 22.5 64.95 z"/>
  <path d="M27.5,64.95 L 26.25 64.95 26.88 63.87 z"/>
  <path d="M26.25,64.95 L 25 64.95 25.62 63.87 z"/>
  <path d="M26.88,63.87 L 25.62 63.87 26.25 62.79 z"/>
  <path d="M25,64.95 L 23.75 64.95 24.38 63.87 z"/>
  <path d="M23.75,64.95 L 22.5 64.95 23.12 63.87 z"/>
  <path d="M24.38,63.87 L 23.12 63.87 23.75 62.79 z"/>
  <path d="M26.25,62.79 L 25 62.79 25.62 61.7 z"/>
  <path d="M25,62.79 L 23.75 62.79 24.38 61.7 z"/>
  <path d="M25.62,61.7 L 24.38 61.7 25 60.62 z"/>
  <path d="M35,60.62 L 33.75 60.62 34.38 59.54 z"/>
  <path d="M33.75,60.62 L 32.5 60.62 33.12 59.54 z"/>
  <path d="M34.38,59.54 L 33.12 59.54 33.75 58.46 z"/>
  <path d="M32.5,60.62 L 31.25 60.62 31.88 59.54 z"/>
  <path d="M31.25,60.62 L 30 60.62 30.62 59.54 z"/>
  <path d="M31.88,59.54 L 30.62 59.54 31.25 58.46 z"/>
  <path d="M33.75,58.46 L 32.5 58.46 33.12 57.37 z"/>
  <path d="M32.5,58.46 L 31.25 58.46 31.88 57.37 z"/>
  <path d="M33.12,57.37 L 31.88 57.37 32.5 56.29 z"/>
  <path d="M30,60.62 L 28.75 60.62 29.38 59.54 z"/>
  <path d="M28.75,60.62 L 27.5 60.62 28.12 59.54 z"/>
  <path d="M29.38,59.54 L 28.12 59.54 28.75 58.46 z"/>
  <path d="M27.5,60.62 L 26.25 60.62 26.88 59.54 z"/>
  <path d="M26.25,60.62 L 25 60.62 25.62 59.54 z"/>
  <path d="M26.88,59.54 L 25.62 59.54 26.25 58.46 z"/>
  <path d="M28.75,58.46 L 27.5 58.46 28.12 57.37 z"/>
  <path d="M27.5,58.46 L 26.25 58.46 26.88 57.37 z"/>
  <path d="M28.12,57.37 L 26.88 57.37 27.5 56.29 z"/>
  <path d="M32.5,56.29 L 31.25 56.29 31.88 55.21 z"/>
  <path d="M31.25,56.29 L 30 56.29 30.62 55.21 z"/>
  <path d="M31.88,55.21 L 30.62 55.21 31.25 54.13 z"/>
  <path d="M30,56.29 L 28.75 56.29 29.38 55.21 z"/>
  <path d="M28.75,56.29 L 27.5 56.29 28.12 55.21 z"/>
  <path d="M29.38,55.21 L 28.12 55.21 28.75 54.13 z"/>
  <path d="M31.25,54.13 L 30 54.13 30.62 53.04 z"/>
  <path d="M30,54.13 L 28.75 54.13 29.38 53.04 z"/>
  <path d="M30.62,53.04 L 29.38 53.04 30 51.96 z"/>
  <path d="M20,69.28 L 18.75 69.28 19.38 68.2 z"/>
  <path d="M18.75,69.28 L 17.5 69.28 18.12 68.2 z"/>
  <path d="M19.38,68.2 L 18.12 68.2 18.75 67.12 z"/>
  <path d="M17.5,69.28 L 16.25 69.28 16.88 68.2 z"/>
  <path d="M16.25,69.28 L 15 69.28 15.62 68.2 z"/>
  <path d="M16.88,68.2 L 15.62 68.2 16.25 67.12 z"/>
  <path d="M18.75,67.12 L 17.5 67.12 18.12 66.03 z"/>
  <path d="M17.5,67.12 L 16.25 67.12 16.88 66.03 z"/>
  <path d="M18.12,66.03 L 16.88 66.03 17.5 64.95 z"/>
  <path d="M15,69.28 L 13.75 69.28 14.38 68.2 z"/>
  <path d="M13.75,69.28 L 12.5 69.28 13.12 68.2 z"/>
  <path d="M14.38,68.2 L 13.12 68.2 13.75 67.12 z"/>
  <path d="M12.5,69.28 L 11.25 69.28 11.88 68.2 z"/>
  <path d="M11.25,69.28 L 10 69.28 10.62 68.2 z"/>
  <path d="M11.88,68.2 L 10.62 68.2 11.25 67.12 z"/>
  <path d="M13.75,67.12 L 12.5 67.12 13.12 66.03 z"/>
  <path d="M12.5,67.12 L 11.25 67.12 11.88 66.03 z"/>
  <path d="M13.12,66.03 L 11.88 66.03 12.5 64.95 z"/>
  <path d="M17.5,64.95 L 16.25 64.95 16.88 63.87 z"/>
  <path d="M16.25,64.95 L 15 64.95 15.62 63.87 z"/>
  <path d="M16.88,63.87 L 15.62 63.87 16.25 62.79 z"/>
  <path d="M15,64.95 L 13.75 64.95 14.38 63.87 z"/>
  <path d="M13.75,64.95 L 12.5 64.95 13.12 63.87 z"/>
  <path d="M14.38,63.87 L 13.12 63.87 13.75 62.79 z"/>
  <path d="M16.25,62.79 L 15 62.79 15.62 61.7 z"/>
  <path d="M15,62.79 L 13.75 62.79 14.38 61.7 z"/>
  <path d="M15.62,61.7 L 14.38 61.7 15 60.62 z"/>
  <path d="M10,69.28 L 8.75 69.28 9.38 68.2 z"/>
  <path d="M8.75,69.28 L 7.5 69.28 8.12 68.2 z"/>
  <path d="M9.38,68.2 L 8.12 68.2 8.75 67.12 z"/>
  <path d="M7.5,69.28 L 6.25 69.28 6.88 68.2 z"/>
  <path d="M6.25,69.28 L 5 69.28 5.62 68.2 z"/>
  <path d="M6.88,68.2 L 5.62 68.2 6.25 67.12 z"/>
  <path d="M8.75,67.12 L 7.5 67.12 8.12 66.03 z"/>
  <path d="M7.5,67.12 L 6.25 67.12 6.88 66.03 z"/>
  <path d="M8.12,66.03 L 6.88 66.03 7.5 64.95 z"/>
  <path d="M5,69.28 L 3.75 69.28 4.38 68.2 z"/>
  <path d="M3.75,69.28 L 2.5 69.28 3.12 68.2 z"/>
  <path d="M4.38,68.2 L 3.12 68.2 3.75 67.12 z"/>
  <path d="M2.5,69.28 L 1.25 69.28 1.88 68.2 z"/>
  <path d="M1.25,69.28 L 0 69.28 0.62 68.2 z"/>
  <path d="M1.88,68.2 L 0.62 68.2 1.25 67.12 z"/>
  <path d="M3.75,67.12 L 2.5 67.12 3.12 66.03 z"/>
  <path d="M2.5,67.12 L 1.25 67.12 1.88 66.03 z"/>
  <path d="M3.12,66.03 L 1.88 66.03 2.5 64.95 z"/>
  <path d="M7.5,64.95 L 6.25 64.95 6.88 63.87 z"/>
  <path d="M6.25,64.95 L 5 64.95 5.62 63.87 z"/>
  <path d="M6.88,63.87 L 5.62 63.87 6.25 62.79 z"/>
  <path d="M5,64.95 L 3.75 64.95 4.38 63.87 z"/>
  <path d="M3.75,64.95 L 2.5 64.95 3.12 63.87 z"/>
  <path d="M4.38,63.87 L 3.12 63.87 3.75 62.79 z"/>
  <path d="M6.25,62.79 L 5 62.79 5.62 61.7 z"/>
  <path d="M5,62.79 L 3.75 62.79 4.38 61.7 z"/>
  <path d="M5.62,61.7 L 4.38 61.7 5 60.62 z"/>
  <path d="M15,60.62 L 13.75 60.62 14.38 59.54 z"/>
  <path d="M13.75,60.62 L 12.5 60.62 13.12 59.54 z"/>
  <path d="M14.38,59.54 L 13.12 59.54 13.75 58.46 z"/>
  <path d="M12.5,60.62 L 11.25 60.62 11.88 59.54 z"/>
  <path d="M11.25,60.62 L 10 60.62 10.62 59.54 z"/>
  <path d="M11.88,59.54 L 10.62 59.54 11.25 58.46 z"/>
  <path d="M13.75,58.46 L 12.5 58.46 13.12 57.37 z"/>
  <path d="M12.5,58.46 L 11.25 58.46 11.88 57.37 z"/>
  <path d="M13.12,57.37 L 11.88 57.37 12.5 56.29 z"/>
  <path d="M10,60.62 L 8.75 60.62 9.38 59.54 z"/>
  <path d="M8.75,60.62 L 7.5 60.62 8.12 59.54 z"/>
  <path d="M9.38,59.54 L 8.12 59.54 8.75 58.46 z"/>
  <path d="M7.5,60.62 L 6.25 60.62 6.88 59.54 z"/>
  <path d="M6.25,60.62 L 5 60.62 5.62 59.54 z"/>
  <path d="M6.88,59.54 L 5.62 59.54 6.25 58.46 z"/>
  <path d="M8.75,58.46 L 7.5 58.46 8.12 57.37 z"/>
  <path d="M7.5,58.46 L 6.25 58.46 6.88 57.37 z"/>
  <path d="M8.12,57.37 L 6.88 57.37 7.5 56.29 z"/>
  <path d="M12.5,56.29 L 11.25 56.29 11.88 55.21 z"/>
  <path d="M11.25,56.29 L 10 56.29 10.62 55.21 z"/>
  <path d="M11.88,55.21 L 10.62 55.21 11.25 54.13 z"/>
  <path d="M10,56.29 L 8.75 56.29 9.38 55.21 z"/>
  <path d="M8.75,56.29 L 7.5 56.29 8.12 55.21 z"/>
  <path d="M9.38,55.21 L 8.12 55.21 8.75 54.13 z"/>
  <path d="M11.25,54.13 L 10 54.13 10.62 53.04 z"/>
  <path d="M10,54.13 L 8.75 54.13 9.38 53.04 z"/>
  <path d="M10.62,53.04 L 9.38 53.04 10 51.96 z"/>
  <path d="M30,51.96 L 28.75 51.96 29.38 50.88 z"/>
  <path d="M28.75,51.96 L 27.5 51.96 28.12 50.88 z"/>
  <path d="M29.38,50.88 L 28.12 50.88 28.75 49.8 z"/>
  <path d="M27.5,51.96 L 26.25 51.96 26.88 50.88 z"/>
  <path d="M26.25,51.96 L 25 51.96 25.62 50.88 z"/>
  <path d="M26.88,50.88 L 25.62 50.88 26.25 49.8 z"/>
  <path d="M28.75,49.8 L 27.5 49.8 28.12 48.71 z"/>
  <path d="M27.5,49.8 L 26.25 49.8 26.88 48.71 z"/>
  <path d="M28.12,48.71 L 26.88 48.71 27.5 47.63 z"/>
  <path d="M25,51.96 L 23.75 51.96 24.38 50.88 z"/>
  <path d="M23.75,51.96 L 22.5 51.96 23.12 50.88 z"/>
  <path d="M24.38,50.88 L 23.12 50.88 23.75 49.8 z"/>
  <path d="M22.5,51.96 L 21.25 51.96 21.88 50.88 z"/>
  <path d="M21.25,51.96 L 20 51.96 20.62 50.88 z"/>
  <path d="M21.88,50.88 L 20.62 50.88 21.25 49.8 z"/>
  <path d="M23.75,49.8 L 22.5 49.8 23.12 48.71 z"/>
  <path d="M22.5,49.8 L 21.25 49.8 21.88 48.71 z"/>
  <path d="M23.12,48.71 L 21.88 48.71 22.5 47.63 z"/>
  <path d="M27.5,47.63 L 26.25 47.63 26.88 46.55 z"/>
  <path d="M26.25,47.63 L 25 47.63 25.62 46.55 z"/>
  <path d="M26.88,46.55 L 25.62 46.55 26.25 45.47 z"/>
  <path d="M25,47.63 L 23.75 47.63 24.38 46.55 z"/>
  <path d="M23.75,47.63 L 22.5 47.63 23.12 46.55 z"/>
  <path d="M24.38,46.55 L 23.12 46.55 23.75 45.47 z"/>
  <path d="M26.25,45.47 L 25 45.47 25.62 44.38 z"/>
  <path d="M25,45.47 L 23.75 45.47 24.38 44.38 z"/>
  <path d="M25.62,44.38 L 24.38 44.38 25 43.3 z"/>
  <path d="M20,51.96 L 18.75 51.96 19.38 50.88 z"/>
  <path d="M18.75,51.96 L 17.5 51.96 18.12 50.88 z"/>
  <path d="M19.38,50.88 L 18.12 50.88 18.75 49.8 z"/>
  <path d="M17.5,51.96 L 16.25 51.96 16.88 50.88 z"/>
  <path d="M16.25,51.96 L 15 51.96 15.62 50.88 z"/>
  <path d="M16.88,50.88 L 15.62 50.88 16.25 49.8 z"/>
  <path d="M18.75,49.8 L 17.5 49.8 18.12 48.71 z"/>
  <path d="M17.5,49.8 L 16.25 49.8 16.88 48.71 z"/>
  <path d="M18.12,48.71 L 16.88 48.71 17.5 47.63 z"/>
  <path d="M15,51.96 L 13.75 51.96 14.38 50.88 z"/>
  <path d="M13.75,51.96 L 12.5 51.96 13.12 50.88 z"/>
  <path d="M14.38,50.88 L 13.12 50.88 13.75 49.8 z"/>
  <path d="M12.5,51.96 L 11.25 51.96 11.88 50.88 z"/>
  <path d="M11.25,51.96 L 10 51.96 10.62 50.88 z"/>
  <path d="M11.88,50.88 L 10.62 50.88 11.25 49.8 z"/>
  <path d="M13.75,49.8 L 12.5 49.8 13.12 48.71 z"/>
  <path d="M12.5,49.8 L 11.25 49.8 11.88 48.71 z"/>
  <path d="M13.12,48.71 L 11.88 48.71 12.5 47.63 z"/>
  <path d="M17.5,47.63 L 16.25 47.63 16.88 46.55 z"/>
  <path d="M16.25,47.63 L 15 47.63 15.62 46.55 z"/>
  <path d="M16.88,46.55 L 15.62 46.55 16.25 45.47 z"/>
  <path d="M15,47.63 L 13.75 47.63 14.38 46.55 z"/>
  <path d="M13.75,47.63 L 12.5 47.63 13.12 46.55 z"/>
  <path d="M14.38,46.55 L 13.12 46.55 13.75 45.47 z"/>
  <path d="M16.25,45.47 L 15 45.47 15.62 44.38 z"/>
  <path d="M15,45.47 L 13.75 45.47 14.38 44.38 z"/>
  <path d="M15.62,44.38 L 14.38 44.38 15 43.3 z"/>
  <path d="M25,43.3 L 23.75 43.3 24.38 42.22 z"/>
  <path d="M23.75,43.3 L 22.5 43.3 23.12 42.22 z"/>
  <path d="M24.38,42.22 L 23.12 42.22 23.75 41.14 z"/>
  <path d="M22.5,43.3 L 21.25 43.3 21.88 42.22 z"/>
  <path d="M21.25,43.3 L 20 43.3 20.62 42.22 z"/>
  <path d="M21.88,42.22 L 20.62 42.22 21.25 41.14 z"/>
  <path d="M23.75,41.14 L 22.5 41.14 23.12 40.05 z"/>
  <path d="M22.5,41.14 L 21.25 41.14 21.88 40.05 z"/>
  <path d="M23.12,40.05 L 21.88 40.05 22.5 38.97 z"/>
  <path d="M20,43.3 L 18.75 43.3 19.38 42.22 z"/>
  <path d="M18.75,43.3 L 17.5 43.3 18.12 42.22 z"/>
  <path d="M19.38,42.22 L 18.12 42.22 18.75 41.14 z"/>
  <path d="M17.5,43.3 L 16.25 43.3 16.88 42.22 z"/>
  <path d="M16.25,43.3 L 15 43.3 15.62 42.22 z"/>
  <path d="M16.88,42.22 L 15.62 42.22 16.25 41.14 z"/>
  <path d="M18.75,41.14 L 17.5 41.14 18.12 40.05 z"/>
  <path d="M17.5,41.14 L 16.25 41.14 16.88 40.05 z"/>
  <path d="M18.12,40.05 L 16.88 40.05 17.5 38.97 z"/>
  <path d="M22.5,38.97 L 21.25 38.97 21.88 37.89 z"/>
  <path d="M21.25,38.97 L 20 38.97 20.62 37.89 z"/>
  <path d="M21.88,37.89 L 20.62 37.89 21.25 36.81 z"/>
  <path d="M20,38.97 L 18.75 38.97 19.38 37.89 z"/>
  <path d="M18.75,38.97 L 17.5 38.97 18.12 37.89 z"/>
  <path d="M19.38,37.89 L 18.12 37.89 18.75 36.81 z"/>
  <path d="M21.25,36.81 L 20 36.81 20.62 35.72 z"/>
  <path d="M20,36.81 L 18.75 36.81 19.38 35.72 z"/>
  <path d="M20.62,35.72 L 19.38 35.72 20 34.64 z"/>
  <path d="M60,34.64 L 58.75 34.64 59.38 33.56 z"/>
  <path d="M58.75,34.64 L 57.5 34.64 58.12 33.56 z"/>
  <path d="M59.38,33.56 L 58.12 33.56 58.75 32.48 z"/>
  <path d="M57.5,34.64 L 56.25 34.64 56.88 33.56 z"/>
  <path d="M56.25,34.64 L 55 34.64 55.62 33.56 z"/>
  <path d="M56.88,33.56 L 55.62 33.56 56.25 32.48 z"/>
  <path d="M58.75,32.48 L 57.5 32.48 58.12 31.39 z"/>
  <path d="M57.5,32.48 L 56.25 32.48 56.88 31.39 z"/>
  <path d="M58.12,31.39 L 56.88 31.39 57.5 30.31 z"/>
  <path d="M55,34.64 L 53.75 34.64 54.38 33.56 z"/>
  <path d="M53.75,34.64 L 52.5 34.64 53.12 33.56 z"/>
  <path d="M54.38,33.56 L 53.12 33.56 53.75 32.48 z"/>
  <path d="M52.5,34.64 L 51.25 34.64 51.88 33.56 z"/>
  <path d="M51.25,34.64 L 50 34.64 50.62 33.56 z"/>
  <path d="M51.88,33.56 L 50.62 33.56 51.25 32.48 z"/>
  <path d="M53.75,32.48 L 52.5 32.48 53.12 31.39 z"/>
  <path d="M52.5,32.48 L 51.25 32.48 51.88 31.39 z"/>
  <path d="M53.12,31.39 L 51.88 31.39 52.5 30.31 z"/>
  <path d="M57.5,30.31 L 56.25 30.31 56.88 29.23 z"/>
  <path d="M56.25,30.31 L 55 30.31 55.62 29.23 z"/>
  <path d="M56.88,29.23 L 55.62 29.23 56.25 28.15 z"/>
  <path d="M55,30.31 L 53.75 30.31 54.38 29.23 z"/>
  <path d="M53.75,30.31 L 52.5 30.31 53.12 29.23 z"/>
  <path d="M54.38,29.23 L 53.12 29.23 53.75 28.15 z"/>
  <path d="M56.25,28.15 L 55 28.15 55.62 27.06 z"/>
  <path d="M55,28.15 L 53.75 28.15 54.38 27.06 z"/>
  <path d="M55.62,27.06 L 54.38 27.06 55 25.98 z"/>
  <path d="M50,34.64 L 48.75 34.64 49.38 33.56 z"/>
  <path d="M48.75,34.64 L 47.5 34.64 48.12 33.56 z"/>
  <path d="M49.38,33.56 L 48.12 33.56 48.75 32.48 z"/>
  <path d="M47.5,34.64 L 46.25 34.64 46.88 33.56 z"/>
  <path d="M46.25,34.64 L 45 34.64 45.62 33.56 z"/>
  <path d="M46.88,33.56 L 45.62 33.56 46.25 32.48 z"/>
  <path d="M48.75,32.48 L 47.5 32.48 48.12 31.39 z"/>
  <path d="M47.5,32.48 L 46.25 32.48 46.88 31.39 z"/>
  <path d="M48.12,31.39 L 46.88 31.39 47.5 30.31 z"/>
  <path d="M45,34.64 L 43.75 34.64 44.38 33.56 z"/>
  <path d="M43.75,34.64 L 42.5 34.64 43.12 33.56 z"/>
  <path d="M44.38,33.56 L 43.12 33.56 43.75 32.48 z"/>
  <path d="M42.5,34.64 L 41.25 34.64 41.88 33.56 z"/>
  <path d="M41.25,34.64 L 40 34.64 40.62 33.56 z"/>
  <path d="M41.88,33.56 L 40.62 33.56 41.25 32.48 z"/>
  <path d="M43.75,32.48 L 42.5 32.48 43.12 31.39 z"/>
  <path d="M42.5,32.48 L 41.25 32.48 41.88 31.39 z"/>
  <path d="M43.12,31.39 L 41.88 31.39 42.5 30.31 z"/>
  <path d="M47.5,30.31 L 46.25 30.31 46.88 29.23 z"/>
  <path d="M46.25,30.31 L 45 30.31 45.62 29.23 z"/>
  <path d="M46.88,29.23 L 45.62 29.23 46.25 28.15 z"/>
  <path d="M45,30.31 L 43.75 30.31 44.38 29.23 z"/>
  <path d="M43.75,30.31 L 42.5 30.31 43.12 29.23 z"/>
  <path d="M44.38,29.23 L 43.12 29.23 43.75 28.15 z"/>
  <path d="M46.25,28.15 L 45 28.15 45.62 27.06 z"/>
  <path d="M45,28.15 L 43.75 28.15 44.38 27.06 z"/>
  <path d="M45.62,27.06 L 44.38 27.06 45 25.98 z"/>
  <path d="M55,25.98 L 53.75 25.98 54.38 24.9 z"/>
  <path d="M53.75,25.98 L 52.5 25.98 53.12 24.9 z"/>
  <path d="M54.38,24.9 L 53.12 24.9 53.75 23.82 z"/>
  <path d="M52.5,25.98 L 51.25 25.98 51.88 24.9 z"/>
  <path d="M51.25,25.98 L 50 25.98 50.62 24.9 z"/>
  <path d="M51.88,24.9 L 50.62 24.9 51.25 23.82 z"/>
  <path d="M53.75,23.82 L 52.5 23.82 53.12 22.73 z"/>
  <path d="M52.5,23.82 L 51.25 23.82 51.88 22.73 z"/>
  <path d="M53.12,22.73 L 51.88 22.73 52.5 21.65 z"/>
  <path d="M50,25.98 L 48.75 25.98 49.38 24.9 z"/>
  <path d="M48.75,25.98 L 47.5 25.98 48.12 24.9 z"/>
  <path d="M49.38,24.9 L 48.12 24.9 48.75 23.82 z"/>
  <path d="M47.5,25.98 L 46.25 25.98 46.88 24.9 z"/>
  <path d="M46.25,25.98 L 45 25.98 45.62 24.9 z"/>
  <path d="M46.88,24.9 L 45.62 24.9 46.25 23.82 z"/>
  <path d="M48.75,23.82 L 47.5 23.82 48.12 22.73 z"/>
  <path d="M47.5,23.82 L 46.25 23.82 46.88 22.73 z"/>
  <path d="M48.12,22.73 L 46.88 22.73 47.5 21.65 z"/>
  <path d="M52.5,21.65 L 51.25 21.65 51.88 20.57 z"/>
  <path d="M51.25,21.65 L 50 21.65 50.62 20.57 z"/>
  <path d="M51.88,20.57 L 50.62 20.57 51.25 19.49 z"/>
  <path d="M50,21.65 L 48.75 21.65 49.38 20.57 z"/>
  <path d="M48.75,21.65 L 47.5 21.65 48.12 20.57 z"/>
  <path d="M49.38,20.57 L 48.12 20.57 48.75 19.49 z"/>
  <path d="M51.25,19.49 L 50 19.49 50.62 18.4 z"/>
  <path d="M50,19.49 L 48.75 19.49 49.38 18.4 z"/>
  <path d="M50.62,18.4 L 49.38 18.4 50 17.32 z"/>
  <path d="M40,34.64 L 38.75 34.64 39.38 33.56 z"/>
  <path d="M38.75,34.64 L 37.5 34.64 38.12 33.56 z"/>
  <path d="M39.38,33.56 L 38.12 33.56 38.75 32.48 z"/>
  <path d="M37.5,34.64 L 36.25 34.64 36.88 33.56 z"/>
  <path d="M36.25,34.64 L 35 34.64 35.62 33.56 z"/>
  <path d="M36.88,33.56 L 35.62 33.56 36.25 32.48 z"/>
  <path d="M38.75,32.48 L 37.5 32.48 38.12 31.39 z"/>
  <path d="M37.5,32.48 L 36.25 32.48 36.88 31.39 z"/>
  <path d="M38.12,31.39 L 36.88 31.39 37.5 30.31 z"/>
  <path d="M35,34.64 L 33.75 34.64 34.38 33.56 z"/>
  <path d="M33.75,34.64 L 32.5 34.64 33.12 33.56 z"/>
  <path d="M34.38,33.56 L 33.12 33.56 33.75 32.48 z"/>
  <path d="M32.5,34.64 L 31.25 34.64 31.88 33.56 z"/>
  <path d="M31.25,34.64 L 30 34.64 30.62 33.56 z"/>
  <path d="M31.88,33.56 L 30.62 33.56 31.25 32.48 z"/>
  <path d="M33.75,32.48 L 32.5 32.48 33.12 31.39 z"/>
  <path d="M32.5,32.48 L 31.25 32.48 31.88 31.39 z"/>
  <path d="M33.12,31.39 L 31.88 31.39 32.5 30.31 z"/>
  <path d="M37.5,30.31 L 36.25 30.31 36.88 29.23 z"/>
  <path d="M36.25,30.31 L 35 30.31 35.62 29.23 z"/>
  <path d="M36.88,29.23 L 35.62 29.23 36.25 28.15 z"/>
  <path d="M35,30.31 L 33.75 30.31 34.38 29.23 z"/>
  <path d="M33.75,30.31 L 32.5 30.31 33.12 29.23 z"/>
  <path d="M34.38,29.23 L 33.12 29.23 33.75 28.15 z"/>
  <path d="M36.25,28.15 L 35 28.15 35.62 27.06 z"/>
  <path d="M35,28.15 L 33.75 28.15 34.38 27.06 z"/>
  <path d="M35.62,27.06 L 34.38 27.06 35 25.98 z"/>
  <path d="M30,34.64 L 28.75 34.64 29.38 33.56 z"/>
  <path d="M28.75,34.64 L 27.5 34.64 28.12 33.56 z"/>
  <path d="M29.38,33.56 L 28.12 33.56 28.75 32.48 z"/>
  <path d="M27.5,34.64 L 26.25 34.64 26.88 33.56 z"/>
  <path d="M26.25,34.64 L 25 34.64 25.62 33.56 z"/>
  <path d="M26.88,33.56 L 25.62 33.56 26.25 32.48 z"/>
  <path d="M28.75,32.48 L 27.5 32.48 28.12 31.39 z"/>
  <path d="M27.5,32.48 L 26.25 32.48 26.88 31.39 z"/>
  <path d="M28.12,31.39 L 26.88 31.39 27.5 30.31 z"/>
  <path d="M25,34.64 L 23.75 34.64 24.38 33.56 z"/>
  <path d="M23.75,34.64 L 22.5 34.64 23.12 33.56 z"/>
  <path d="M24.38,33.56 L 23.12 33.56 23.75 32.48 z"/>
  <path d="M22.5,34.64 L 21.25 34.64 21.88 33.56 z"/>
  <path d="M21.25,34.64 L 20 34.64 20.62 33.56 z"/>
  <path d="M21.88,33.56 L 20.62 33.56 21.25 32.48 z"/>
  <path d="M23.75,32.48 L 22.5 32.48 23.12 31.39 z"/>
  <path d="M22.5,32.48 L 21.25 32.48 21.88 31.39 z"/>
  <path d="M23.12,31.39 L 21.88 31.39 22.5 30.31 z"/>
  <path d="M27.5,30.31 L 26.25 30.31 26.88 29.23 z"/>
  <path d="M26.25,30.31 L 25 30.31 25.62 29.23 z"/>
  <path d="M26.88,29.23 L 25.62 29.23 26.25 28.15 z"/>
  <path d="M25,30.31 L 23.75 30.31 24.38 29.23 z"/>
  <path d="M23.75,30.31 L 22.5 30.31 23.12 29.23 z"/>
  <path d="M24.38,29.23 L 23.12 29.23 23.75 28.15 z"/>
  <path d="M26.25,28.15 L 25 28.15 25.62 27.06 z"/>
  <path d="M25,28.15 L 23.75 28.15 24.38 27.06 z"/>
  <path d="M25.62,27.06 L 24.38 27.06 25 25.98 z"/>
  <path d="M35,25.98 L 33.75 25.98 34.38 24.9 z"/>
  <path d="M33.75,25.98 L 32.5 25.98 33.12 24.9 z"/>
  <path d="M34.38,24.9 L 33.12 24.9 33.75 23.82 z"/>
  <path d="M32.5,25.98 L 31.25 25.98 31.88 24.9 z"/>
  <path d="M31.25,25.98 L 30 25.98 30.62 24.9 z"/>
  <path d="M31.88,24.9 L 30.62 24.9 31.25 23.82 z"/>
  <path d="M33.75,23.82 L 32.5 23.82 33.12 22.73 z"/>
  <path d="M32.5,23.82 L 31.25 23.82 31.88 22.73 z"/>
  <path d="M33.12,22.73 L 31.88 22.73 32.5 21.65 z"/>
  <path d="M30,25.98 L 28.75 25.98 29.38 24.9 z"/>
  <path d="M28.75,25.98 L 27.5 25.98 28.12 24.9 z"/>
  <path d="M29.38,24.9 L 28.12 24.9 28.75 23.82 z"/>
  <path d="M27.5,25.98 L 26.25 25.98 26.88 24.9 z"/>
  <path d="M26.25,25.98 L 25 25.98 25.62 24.9 z"/>
  <path d="M26.88,24.9 L 25.62 24.9 26.25 23.82 z"/>
  <path d="M28.75,23.82 L 27.5 23.82 28.12 22.73 z"/>
  <path d="M27.5,23.82 L 26.25 23.82 26.88 22.73 z"/>
  <path d="M28.12,22.73 L 26.88 22.73 27.5 21.65 z"/>
  <path d="M32.5,21.65 L 31.25 21.65 31.88 20.57 z"/>
  <path d="M31.25,21.65 L 30 21.65 30.62 20.57 z"/>
  <path d="M31.88,20.57 L 30.62 20.57 31.25 19.49 z"/>
  <path d="M30,21.65 L 28.75 21.65 29.38 20.57 z"/>
  <path d="M28.75,21.65 L 27.5 21.65 28.12 20.57 z"/>
  <path d="M29.38,20.57 L 28.12 20.57 28.75 19.49 z"/>
  <path d="M31.25,19.49 L 30 19.49 30.62 18.4 z"/>
  <path d="M30,19.49 L 28.75 19.49 29.38 18.4 z"/>
  <path d="M30.62,18.4 L 29.38 18.4 30 17.32 z"/>
  <path d="M50,17.32 L 48.75 17.32 49.38 16.24 z"/>
  <path d="M48.75,17.32 L 47.5 17.32 48.12 16.24 z"/>
  <path d="M49.38,16.24 L 48.12 16.24 48.75 15.16 z"/>
  <path d="M47.5,17.32 L 46.25 17.32 46.88 16.24 z"/>
  <path d="M46.25,17.32 L 45 17.32 45.62 16.24 z"/>
  <path d="M46.88,16.24 L 45.62 16.24 46.25 15.16 z"/>
  <path d="M48.75,15.16 L 47.5 15.16 48.12 14.07 z"/>
  <path d="M47.5,15.16 L 46.25 15.16 46.88 14.07 z"/>
  <path d="M48.12,14.07 L 46.88 14.07 47.5 12.99 z"/>
  <path d="M45,17.32 L 43.75 17.32 44.38 16.24 z"/>
  <path d="M43.75,17.32 L 42.5 17.32 43.12 16.24 z"/>
  <path d="M44.38,16.24 L 43.12 16.24 43.75 15.16 z"/>
  <path d="M42.5,17.32 L 41.25 17.32 41.88 16.24 z"/>
  <path d="M41.25,17.32 L 40 17.32 40.62 16.24 z"/>
  <path d="M41.88,16.24 L 40.62 16.24 41.25 15.16 z"/>
  <path d="M43.75,15.16 L 42.5 15.16 43.12 14.07 z"/>
  <path d="M42.5,15.16 L 41.25 15.16 41.88 14.07 z"/>
  <path d="M43.12,14.07 L 41.88 14.07 42.5 12.99 z"/>
  <path d="M47.5,12.99 L 46.25 12.99 46.88 11.91 z"/>
  <path d="M46.25,12.99 L 45 12.99 45.62 11.91 z"/>
  <path d="M46.88,11.91 L 45.62 11.91 46.25 10.83 z"/>
  <path d="M45,12.99 L 43.75 12.99 44.38 11.91 z"/>
  <path d="M43.75,12.99 L 42.5 12.99 43.12 11.91 z"/>
  <path d="M44.38,11.91 L 43.12 11.91 43.75 10.83 z"/>
  <path d="M46.25,10.83 L 45 10.83 45.62 9.74 z"/>
  <path d="M45,10.83 L 43.75 10.83 44.38 9.74 z"/>
  <path d="M45.62,9.74 L 44.38 9.74 45 8.66 z"/>
  <path d="M40,17.32 L 38.75 17.32 39.38 16.24 z"/>
  <path d="M38.75,17.32 L 37.5 17.32 38.12 16.24 z"/>
  <path d="M39.38,16.24 L 38.12 16.24 38.75 15.16 z"/>
  <path d="M37.5,17.32 L 36.25 17.32 36.88 16.24 z"/>
  <path d="M36.25,17.32 L 35 17.32 35.62 16.24 z"/>
  <path d="M36.88,16.24 L 35.62 16.24 36.25 15.16 z"/>
  <path d="M38.75,15.16 L 37.5 15.16 38.12 14.07 z"/>
  <path d="M37.5,15.16 L 36.25 15.16 36.88 14.07 z"/>
  <path d="M38.12,14.07 L 36.88 14.07 37.5 12.99 z"/>
  <path d="M35,17.32 L 33.75 17.32 34.38 16.24 z"/>
  <path d="M33.75,17.32 L 32.5 17.32 33.12 16.24 z"/>
  <path d="M34.38,16.24 L 33.12 16.24 33.75 15.16 z"/>
  <path d="M32.5,17.32 L 31.25 17.32 31.88 16.24 z"/>
  <path d="M31.25,17.32 L 30 17.32 30.62 16.24 z"/>
  <path d="M31.88,16.24 L 30.62 16.24 31.25 15.16 z"/>
  <path d="M33.75,15.16 L 32.5 15.16 33.12 14.07 z"/>
  <path d="M32.5,15.16 L 31.25 15.16 31.88 14.07 z"/>
  <path d="M33.12,14.07 L 31.88 14.07 32.5 12.99 z"/>
  <path d="M37.5,12.99 L 36.25 12.99 36.88 11.91 z"/>
  <path d="M36.25,12.99 L 35 12.99 35.62 11.91 z"/>
  <path d="M36.88,11.91 L 35.62 11.91 36.25 10.83 z"/>
  <path d="M35,12.99 L 33.75 12.99 34.38 11.91 z"/>
  <path d="M33.75,12.99 L 32.5 12.99 33.12 11.91 z"/>
  <path d="M34.38,11.91 L 33.12 11.91 33.75 10.83 z"/>
  <path d="M36.25,10.83 L 35 10.83 35.62 9.74 z"/>
  <path d="M35,10.83 L 33.75 10.83 34.38 9.74 z"/>
  <path d="M35.62,9.74 L 34.38 9.74 35 8.66 z"/>
  <path d="M45,8.66 L 43.75 8.66 44.38 7.58 z"/>
  <path d="M43.75,8.66 L 42.5 8.66 43.12 7.58 z"/>
  <path d="M44.38,7.58 L 43.12 7.58 43.75 6.5 z"/>
  <path d="M42.5,8.66 L 41.25 8.66 41.88 7.58 z"/>
  <path d="M41.25,8.66 L 40 8.66 40.62 7.58 z"/>
  <path d="M41.88,7.58 L 40.62 7.58 41.25 6.5 z"/>
  <path d="M43.75,6.5 L 42.5 6.5 43.12 5.41 z"/>
  <path d="M42.5,6.5 L 41.25 6.5 41.88 5.41 z"/>
  <path d="M43.12,5.41 L 41.88 5.41 42.5 4.33 z"/>
  <path d="M40,8.66 L 38.75 8.66 39.38 7.58 z"/>
  <path d="M38.75,8.66 L 37.5 8.66 38.12 7.58 z"/>
  <path d="M39.38,7.58 L 38.12 7.58 38.75 6.5 z"/>
  <path d="M37.5,8.66 L 36.25 8.66 36.88 7.58 z"/>
  <path d="M36.25,8.66 L 35 8.66 35.62 7.58 z"/>
  <path d="M36.88,7.58 L 35.62 7.58 36.25 6.5 z"/>
  <path d="M38.75,6.5 L 37.5 6.5 38.12 5.41 z"/>
  <path d="M37.5,6.5 L 36.25 6.5 36.88 5.41 z"/>
  <path d="M38.12,5.41 L 36.88 5.41 37.5 4.33 z"/>
  <path d="M42.5,4.33 L 41.25 4.33 41.88 3.25 z"/>
  <path d="M41.25,4.33 L 40 4.33 40.62 3.25 z"/>
  <path d="M41.88,3.25 L 40.62 3.25 41.25 2.17 z"/>
  <path d="M40,4.33 L 38.75 4.33 39.38 3.25 z"/>
  <path d="M38.75,4.33 L 37.5 4.33 38.12 3.25 z"/>
  <path d="M39.38,3.25 L 38.12 3.25 38.75 2.17 z"/>
  <path d="M41.25,2.17 L 40 2.17 40.62 1.08 z"/>
  <path d="M40,2.17 L 38.75 2.17 39.38 1.08 z"/>
  <path d="M40.62,1.08 L 39.38 1.08 40 0 z"/>
</g>
</svg>
