<svg xmlns="http://www.w3.org/2000/svg" xmlns:xlink="http://www.w3.org/1999/xlink" version="1.2" width="76.2mm" height="76.2mm" viewBox="0 0 76.2 76.2" stroke="none" fill="#000000" stroke-width="0.3">
<g stroke-width="0.5" stroke="#303030" id="fig-83f9bd5336514b56a2fa93ba4da6f9f4-element-1">
  <g fill="#303030" id="fig-83f9bd5336514b56a2fa93ba4da6f9f4-element-2">
    <rect x="0" y="0" width="76.2" height="76.2"></rect>
  </g>
  <g fill="#00C5C0" id="fig-83f9bd5336514b56a2fa93ba4da6f9f4-element-3">
    <path d="M38.1 40.2A2.1 2.1 0 1 1 38.1 36L38.1 37.5A0.6 0.6 0 1 0 38.1 38.7z"></path>
  </g>
  <g fill="#F4E6D6" id="fig-83f9bd5336514b56a2fa93ba4da6f9f4-element-4">
    <path d="M41.7 38.1A3.6 3.6 0 1 1 34.5 38.1L36 38.1A2.1 2.1 0 1 0 40.2 38.1z"></path>
  </g>
  <g fill="#00C5C0" id="fig-83f9bd5336514b56a2fa93ba4da6f9f4-element-5">
    <path d="M38.1 33A5.1 5.1 0 1 1 38.1 43.2L38.1 41.7A3.6 3.6 0 1 0 38.1 34.5z"></path>
  </g>
  <g fill="#F4E6D6" id="fig-83f9bd5336514b56a2fa93ba4da6f9f4-element-6">
    <path d="M31.5 38.1A6.6 6.6 0 1 1 44.7 38.1L43.2 38.1A5.1 5.1 0 1 0 33 38.1z"></path>
  </g>
  <g fill="#00C5C0" id="fig-83f9bd5336514b56a2fa93ba4da6f9f4-element-7">
    <path d="M38.1 46.2A8.1 8.1 0 1 1 38.1 30L38.1 31.5A6.6 6.6 0 1 0 38.1 44.7z"></path>
  </g>
  <g fill="#F4E6D6" id="fig-83f9bd5336514b56a2fa93ba4da6f9f4-element-8">
    <path d="M47.7 38.1A9.6 9.6 0 1 1 28.5 38.1L30 38.1A8.1 8.1 0 1 0 46.2 38.1z"></path>
  </g>
  <g fill="#00C5C0" id="fig-83f9bd5336514b56a2fa93ba4da6f9f4-element-9">
    <path d="M38.1 27A11.1 11.1 0 1 1 38.1 49.2L38.1 47.7A9.6 9.6 0 1 0 38.1 28.5z"></path>
  </g>
  <g fill="#F4E6D6" id="fig-83f9bd5336514b56a2fa93ba4da6f9f4-element-10">
    <path d="M25.5 38.1A12.6 12.6 0 1 1 50.7 38.1L49.2 38.1A11.1 11.1 0 1 0 27 38.1z"></path>
  </g>
  <g fill="#00C5C0" id="fig-83f9bd5336514b56a2fa93ba4da6f9f4-element-11">
    <path d="M38.1 52.2A14.1 14.1 0 1 1 38.1 24L38.1 25.5A12.6 12.6 0 1 0 38.1 50.7z"></path>
  </g>
  <g fill="#F4E6D6" id="fig-83f9bd5336514b56a2fa93ba4da6f9f4-element-12">
    <path d="M53.7 38.1A15.6 15.6 0 1 1 22.5 38.1L24 38.1A14.1 14.1 0 1 0 52.2 38.1z"></path>
  </g>
  <g fill="#00C5C0" id="fig-83f9bd5336514b56a2fa93ba4da6f9f4-element-13">
    <path d="M38.1 21A17.1 17.1 0 1 1 38.1 55.2L38.1 53.7A15.6 15.6 0 1 0 38.1 22.5z"></path>
  </g>
  <g fill="#F4E6D6" id="fig-83f9bd5336514b56a2fa93ba4da6f9f4-element-14">
    <path d="M19.5 38.1A18.6 18.6 0 1 1 56.7 38.1L55.2 38.1A17.1 17.1 0 1 0 21 38.1z"></path>
  </g>
  <g fill="#00C5C0" id="fig-83f9bd5336514b56a2fa93ba4da6f9f4-element-15">
    <path d="M38.1 58.2A20.1 20.1 0 1 1 38.1 18L38.1 19.5A18.6 18.6 0 1 0 38.1 56.7z"></path>
  </g>
  <g fill="#F4E6D6" id="fig-83f9bd5336514b56a2fa93ba4da6f9f4-element-16">
    <path d="M59.7 38.1A21.6 21.6 0 1 1 16.5 38.1L18 38.1A20.1 20.1 0 1 0 58.2 38.1z"></path>
  </g>
  <g fill="#00C5C0" id="fig-83f9bd5336514b56a2fa93ba4da6f9f4-element-17">
    <path d="M38.1 15A23.1 23.1 0 1 1 38.1 61.2L38.1 59.7A21.6 21.6 0 1 0 38.1 16.5z"></path>
  </g>
  <g fill="#F4E6D6" id="fig-83f9bd5336514b56a2fa93ba4da6f9f4-element-18">
    <path d="M13.5 38.1A24.6 24.6 0 1 1 62.7 38.1L61.2 38.1A23.1 23.1 0 1 0 15 38.1z"></path>
  </g>
  <g fill="#00C5C0" id="fig-83f9bd5336514b56a2fa93ba4da6f9f4-element-19">
    <path d="M38.1 64.2A26.1 26.1 0 1 1 38.1 12L38.1 13.5A24.6 24.6 0 1 0 38.1 62.7z"></path>
  </g>
  <g fill="#F4E6D6" id="fig-83f9bd5336514b56a2fa93ba4da6f9f4-element-20">
    <path d="M65.7 38.1A27.6 27.6 0 1 1 10.5 38.1L12 38.1A26.1 26.1 0 1 0 64.2 38.1z"></path>
  </g>
  <g fill="#00C5C0" id="fig-83f9bd5336514b56a2fa93ba4da6f9f4-element-21">
    <path d="M38.1 9A29.1 29.1 0 1 1 38.1 67.2L38.1 65.7A27.6 27.6 0 1 0 38.1 10.5z"></path>
  </g>
  <g fill="#F4E6D6" id="fig-83f9bd5336514b56a2fa93ba4da6f9f4-element-22">
    <path d="M7.5 38.1A30.6 30.6 0 1 1 68.7 38.1L67.2 38.1A29.1 29.1 0 1 0 9 38.1z"></path>
  </g>
  <g fill="#00C5C0" id="fig-83f9bd5336514b56a2fa93ba4da6f9f4-element-23">
    <path d="M38.1 70.2A32.1 32.1 0 1 1 38.1 6L38.1 7.5A30.6 30.6 0 1 0 38.1 68.7z"></path>
  </g>
  <g fill="#F4E6D6" id="fig-83f9bd5336514b56a2fa93ba4da6f9f4-element-24">
    <path d="M71.7 38.1A33.6 33.6 0 1 1 4.5 38.1L6 38.1A32.1 32.1 0 1 0 70.2 38.1z"></path>
  </g>
  <g fill="#00C5C0" id="fig-83f9bd5336514b56a2fa93ba4da6f9f4-element-25">
    <path d="M38.1 3A35.1 35.1 0 1 1 38.1 73.2L38.1 71.7A33.6 33.6 0 1 0 38.1 4.5z"></path>
  </g>
  <g fill="#F4E6D6" id="fig-83f9bd5336514b56a2fa93ba4da6f9f4-element-26">
    <path d="M1.5 38.1A36.6 36.6 0 1 1 74.7 38.1L73.2 38.1A35.1 35.1 0 1 0 3 38.1z"></path>
  </g>
  <g fill="#00C5C0" id="fig-83f9bd5336514b56a2fa93ba4da6f9f4-element-27">
    <path d="M38.1 76.2A38.1 38.1 0 1 1 38.1 0L38.1 1.5A36.6 36.6 0 1 0 38.1 74.7z"></path>
  </g>
</g>
</svg>
